<svg width="277" height="37" viewBox="0 0 277 37" fill="none" xmlns="http://www.w3.org/2000/svg">
<path d="M29.2891 0.609375L30.4609 4.92578C30.1745 7.36068 29.4128 10.7005 28.1758 14.9453C27.2122 12.6797 26.2031 10.6029 25.1484 8.71484C22.5703 7.67318 20.0378 7.15234 17.5508 7.15234C13.4883 7.15234 10.3177 8.35026 8.03906 10.7461C5.7474 13.1549 4.60156 15.974 4.60156 19.2031C4.60156 20.974 5.08333 22.4974 6.04688 23.7734C6.9974 25.0365 8.82031 26.2083 11.5156 27.2891C14.224 28.3698 17.6094 29.1836 21.6719 29.7305C23.026 29.9258 24.4128 30.082 25.832 30.1992C27.2513 30.3164 28.8073 30.4076 30.5 30.4727C32.1927 30.5378 33.7747 30.5703 35.2461 30.5703L31.8086 35.082C26.7305 36.0326 21.9388 36.5078 17.4336 36.5078C11.4831 36.5078 7.13411 35.3685 4.38672 33.0898C1.61328 30.8242 0.226562 27.8815 0.226562 24.2617C0.226562 20.2513 1.37891 16.306 3.68359 12.4258C5.96224 8.54557 9.08724 5.53125 13.0586 3.38281C17.0299 1.23438 21.0078 0.160156 24.9922 0.160156C26.3203 0.160156 27.7526 0.309896 29.2891 0.609375ZM34.9922 2.67969L41.5938 0.609375L41.3984 8.03125V12.8359L44.543 9.57422H44.7773C47.4336 10.3945 49.1849 11.2604 50.0312 12.1719C50.8776 13.0964 51.3008 14.6849 51.3008 16.9375C51.3008 17.7318 51.1771 19.112 50.9297 21.0781C50.7865 22.1198 50.6693 23.5977 50.5781 25.5117C48.6771 27.0872 46.5547 28.5846 44.2109 30.0039C44.7839 25.3685 45.1159 22.3932 45.207 21.0781L44.4844 16.4492C44.4193 16.1628 44.0417 15.0234 43.3516 13.0312C42.4531 14.2161 41.8021 15.0169 41.3984 15.4336V20.375C41.3984 20.4401 41.3854 20.9023 41.3594 21.7617C41.3203 22.556 41.3008 23.2005 41.3008 23.6953C41.3008 24.099 41.3333 24.8672 41.3984 26C40.0052 26.0521 37.6745 26.319 34.4062 26.8008C34.6016 25.2122 34.7383 23.1224 34.8164 20.5312C34.8815 17.9271 34.9401 11.9766 34.9922 2.67969ZM53 15.0234L53.5273 12.582C56.1445 12.1523 59.1458 11.1367 62.5312 9.53516V12.9727L62.4727 14.4375C62.4727 14.6328 62.4792 14.8086 62.4922 14.9648C62.5052 15.3945 62.5117 15.987 62.5117 16.7422C62.5117 17.0807 62.5182 17.3542 62.5312 17.5625L62.668 21C62.694 21.7422 62.7917 23.4089 62.9609 26C60.2786 26.4688 57.9479 26.8203 55.9688 27.0547C56.151 25.4141 56.2422 22.9727 56.2422 19.7305L56.1641 14.8281C55.6172 15.0495 55.0312 15.1602 54.4062 15.1602C53.9375 15.1602 53.4688 15.1146 53 15.0234ZM58.7812 0.628906C59.7578 0.628906 60.6042 0.967448 61.3203 1.64453C62.0234 2.32161 62.375 3.18099 62.375 4.22266C62.375 5.19922 62.0234 6.03906 61.3203 6.74219C60.6042 7.44531 59.7578 7.79688 58.7812 7.79688C57.8047 7.79688 56.9648 7.44531 56.2617 6.74219C55.5586 6.05208 55.207 5.21224 55.207 4.22266C55.207 3.23307 55.5586 2.38672 56.2617 1.68359C56.9518 0.980469 57.7917 0.628906 58.7812 0.628906ZM67.6875 2.5625L71.5156 1.58594L74.4062 0.804688L73.5859 15.2188L73.293 20.8828C74.2565 21.5729 75.3438 22.2695 76.5547 22.9727V23.1094C75.0052 24.5547 73.7031 25.9805 72.6484 27.3867C70.8516 27.0091 69.5104 26.2344 68.625 25.0625C67.7396 23.8776 67.2969 22.2891 67.2969 20.2969C67.2969 19.5026 67.3359 18.2005 67.4141 16.3906C67.4922 14.6458 67.5833 10.0365 67.6875 2.5625ZM84.25 13.3633L84.4453 21.5664C84.5104 21.5013 84.569 21.4427 84.6211 21.3906C84.6862 21.3255 84.7383 21.2734 84.7773 21.2344C84.8685 21.0781 84.9922 20.8763 85.1484 20.6289C85.3177 20.3685 85.4674 20.1276 85.5977 19.9062L88.6055 14.6133C87.3685 14.0404 85.9167 13.6237 84.25 13.3633ZM95.4023 26L88.5469 27.25C88.5599 26.8333 88.5664 26.3451 88.5664 25.7852C88.5664 23.7018 88.3971 21.6315 88.0586 19.5742C87.6159 20.4076 86.7174 21.5794 85.3633 23.0898C83.918 24.7044 82.8503 25.9609 82.1602 26.8594C80.832 26.4557 79.7318 26.0586 78.8594 25.668C78.5208 23.6628 78.3516 21.4492 78.3516 19.0273C78.3516 17.543 78.5664 16.2865 78.9961 15.2578C79.4388 14.2161 80.1875 13.1289 81.2422 11.9961C82.2969 10.8633 83.4362 9.89323 84.6602 9.08594C85.5065 9.125 86.776 9.3724 88.4688 9.82812C88.5729 7.04167 88.625 4.42448 88.625 1.97656C92.401 1.27344 94.6862 0.830729 95.4805 0.648438C95.0117 5.89583 94.7773 11.5859 94.7773 17.7188C94.7773 19.2292 94.8294 20.7005 94.9336 22.1328C95.0508 23.5651 95.207 24.8542 95.4023 26ZM103.195 9.28125C105.826 9.34635 107.707 9.51562 108.84 9.78906C110.051 10.0885 111.053 10.7201 111.848 11.6836C112.642 12.6732 113.039 13.9232 113.039 15.4336C111.008 15.7721 109.087 16.2865 107.277 16.9766C106.978 15.5312 106.197 14.6458 104.934 14.3203C104.699 16.6771 104.582 18.2982 104.582 19.1836C104.582 19.8346 104.771 20.3685 105.148 20.7852C105.526 21.2018 106.125 21.5534 106.945 21.8398C107.792 22.1523 108.56 22.3086 109.25 22.3086C110.344 22.3086 111.379 21.6706 112.355 20.3945L112.434 20.4727C111.678 22.5951 110.741 24.1445 109.621 25.1211C108.514 26.0977 106.861 26.5859 104.66 26.5859C103.02 26.5859 101.698 26.2539 100.695 25.5898C99.7057 24.9258 99.0417 24.112 98.7031 23.1484C98.3516 22.1849 98.1758 20.9089 98.1758 19.3203C98.1758 17.6797 98.2409 15.6419 98.3711 13.207C99.8815 11.8008 101.49 10.4922 103.195 9.28125ZM121.008 14.2422L121.438 21.918C122.154 21.1237 122.863 20.2318 123.566 19.2422C124.27 18.2396 124.868 17.3021 125.363 16.4297C124.647 15.401 123.195 14.6719 121.008 14.2422ZM121.086 9.53516C121.281 9.58724 122.46 9.8151 124.621 10.2188C126.574 10.5703 127.863 10.8438 128.488 11.0391C129.1 11.2604 129.68 11.612 130.227 12.0938C130.773 12.5755 131.184 13.2526 131.457 14.125C131.73 14.9844 131.867 16.1497 131.867 17.6211L131.77 23.3633C131.77 24.0404 131.835 24.8346 131.965 25.7461C130.754 25.9414 128.534 26.5013 125.305 27.4258C125.539 25.6419 125.656 23.1875 125.656 20.0625C125.435 20.4271 124.79 21.1953 123.723 22.3672C122.655 23.5391 121.132 25.1406 119.152 27.1719C117.629 26.7682 116.457 26.3776 115.637 26C115.585 25.5052 115.48 24.737 115.324 23.6953C115.103 22.0677 114.992 20.5964 114.992 19.2812C114.992 17.3802 115.389 15.7786 116.184 14.4766C116.952 13.1875 118.586 11.5404 121.086 9.53516ZM135.598 15.2969L135.734 9.67188L141.652 10.2188L141.984 14.7305C142.297 13.8451 142.577 12.9857 142.824 12.1523C143.02 11.4622 143.234 10.9284 143.469 10.5508C143.677 10.1862 144.048 9.86719 144.582 9.59375C145.09 9.32031 145.702 9.18359 146.418 9.18359C147.225 9.18359 148.117 9.3724 149.094 9.75L148.449 12.2305C148.124 13.5716 147.714 15.056 147.219 16.6836C145.656 15.6549 144.602 15.0625 144.055 14.9062C143.013 16.2734 142.395 17.3086 142.199 18.0117C142.277 19.1836 142.362 20.0885 142.453 20.7266C143.625 21.1432 144.66 21.3516 145.559 21.3516C145.012 22.888 144.341 24.5677 143.547 26.3906C140.839 26.3906 139.178 26.2279 138.566 25.9023C137.928 25.5898 137.264 25.056 136.574 24.3008C135.871 23.5326 135.52 22.0742 135.52 19.9258C135.52 18.5195 135.546 16.9766 135.598 15.2969ZM155.949 13.4023L155.441 18.168C156.574 18.168 157.792 18.1289 159.094 18.0508C159.12 17.1914 159.133 16.7812 159.133 16.8203C159.133 15.7135 158.84 14.8802 158.254 14.3203C157.655 13.7474 156.887 13.4414 155.949 13.4023ZM150.051 13.207L154.445 9.47656L159.699 9.86719C161.392 10.0104 162.59 10.4336 163.293 11.1367C164.022 11.8659 164.387 12.6602 164.387 13.5195C164.387 13.8971 164.335 14.3854 164.23 14.9844C164.087 15.6875 163.938 16.7357 163.781 18.1289C161.997 19.0534 160.643 19.5938 159.719 19.75C158.781 19.9062 157.883 19.9844 157.023 19.9844C156.698 19.9844 156.294 19.9518 155.812 19.8867C157.089 21.4753 158.332 22.2695 159.543 22.2695C160.975 22.2695 162.264 21.7292 163.41 20.6484H163.566C162.264 24.7109 159.855 26.7422 156.34 26.7422C154.517 26.7422 153.195 26.4883 152.375 25.9805C151.555 25.4727 150.93 24.737 150.5 23.7734C150.057 22.8359 149.836 21.0586 149.836 18.4414L149.934 15.1016L150.051 13.207ZM184.602 9.28125C187.232 9.34635 189.113 9.51562 190.246 9.78906C191.457 10.0885 192.46 10.7201 193.254 11.6836C194.048 12.6732 194.445 13.9232 194.445 15.4336C192.414 15.7721 190.493 16.2865 188.684 16.9766C188.384 15.5312 187.603 14.6458 186.34 14.3203C186.105 16.6771 185.988 18.2982 185.988 19.1836C185.988 19.8346 186.177 20.3685 186.555 20.7852C186.932 21.2018 187.531 21.5534 188.352 21.8398C189.198 22.1523 189.966 22.3086 190.656 22.3086C191.75 22.3086 192.785 21.6706 193.762 20.3945L193.84 20.4727C193.085 22.5951 192.147 24.1445 191.027 25.1211C189.921 26.0977 188.267 26.5859 186.066 26.5859C184.426 26.5859 183.104 26.2539 182.102 25.5898C181.112 24.9258 180.448 24.112 180.109 23.1484C179.758 22.1849 179.582 20.9089 179.582 19.3203C179.582 17.6797 179.647 15.6419 179.777 13.207C181.288 11.8008 182.896 10.4922 184.602 9.28125ZM202.863 13.4023L202.355 18.168C203.488 18.168 204.706 18.1289 206.008 18.0508C206.034 17.1914 206.047 16.7812 206.047 16.8203C206.047 15.7135 205.754 14.8802 205.168 14.3203C204.569 13.7474 203.801 13.4414 202.863 13.4023ZM196.965 13.207L201.359 9.47656L206.613 9.86719C208.306 10.0104 209.504 10.4336 210.207 11.1367C210.936 11.8659 211.301 12.6602 211.301 13.5195C211.301 13.8971 211.249 14.3854 211.145 14.9844C211.001 15.6875 210.852 16.7357 210.695 18.1289C208.911 19.0534 207.557 19.5938 206.633 19.75C205.695 19.9062 204.797 19.9844 203.938 19.9844C203.612 19.9844 203.208 19.9518 202.727 19.8867C204.003 21.4753 205.246 22.2695 206.457 22.2695C207.889 22.2695 209.178 21.7292 210.324 20.6484H210.48C209.178 24.7109 206.77 26.7422 203.254 26.7422C201.431 26.7422 200.109 26.4883 199.289 25.9805C198.469 25.4727 197.844 24.737 197.414 23.7734C196.971 22.8359 196.75 21.0586 196.75 18.4414L196.848 15.1016L196.965 13.207ZM218.137 10.0625L220.012 9.49609V12.0547C220.376 11.8333 221.027 11.4557 221.965 10.9219C222.277 10.7526 222.583 10.5703 222.883 10.375L224.543 9.37891C225.754 9.54818 226.678 9.75651 227.316 10.0039C227.928 10.2513 228.436 10.6224 228.84 11.1172C229.23 11.599 229.497 12.0872 229.641 12.582C229.771 13.0247 229.836 13.7604 229.836 14.7891C229.836 16.013 229.719 17.4583 229.484 19.125C229.237 20.8958 229.1 22.4193 229.074 23.6953L225.461 26L224.914 26.3711C223.872 27.0872 223.02 27.5755 222.355 27.8359C223.111 24.2292 223.488 21.4036 223.488 19.3594C223.488 16.8984 222.948 14.737 221.867 12.875C221.828 12.9271 221.594 13.1615 221.164 13.5781L220.812 13.9688L220.012 14.7695L220.109 26C217.987 26.0651 215.78 26.3776 213.488 26.9375C213.488 26.2604 213.495 25.8112 213.508 25.5898C213.534 24.7826 213.547 24.3008 213.547 24.1445V23.6953C213.508 23.1484 213.488 22.7643 213.488 22.543V17.9336C213.488 15.6029 213.449 13.513 213.371 11.6641C213.54 11.612 213.736 11.5534 213.957 11.4883C214.178 11.4102 214.426 11.3255 214.699 11.2344C214.986 11.1432 215.285 11.0391 215.598 10.9219L218.137 10.0625ZM234.113 9.28125L234.094 7.69922C234.25 7.67318 234.868 7.60807 235.949 7.50391C237.785 7.30859 239.152 7.14583 240.051 7.01562C240.064 7.22396 240.07 7.44531 240.07 7.67969C240.07 8.09635 240.025 8.78646 239.934 9.75C240.35 9.78906 241.177 9.80859 242.414 9.80859C243.26 9.80859 243.827 9.78906 244.113 9.75C243.762 11.8594 243.534 13.1029 243.43 13.4805C242.557 13.6107 241.353 13.7083 239.816 13.7734C239.725 15.7005 239.68 17.0156 239.68 17.7188C239.68 18.8516 239.947 19.7565 240.48 20.4336C241.001 21.0977 241.906 21.6185 243.195 21.9961L239.816 27.1133C235.559 25.9414 233.43 23.7409 233.43 20.5117C233.43 19.9779 233.521 18.9492 233.703 17.4258C233.885 15.8503 233.99 14.7891 234.016 14.2422C233.417 14.2552 232.753 14.3268 232.023 14.457L234.094 10.9023V10.5117L234.113 9.28125ZM252.082 13.4023L251.574 18.168C252.707 18.168 253.924 18.1289 255.227 18.0508C255.253 17.1914 255.266 16.7812 255.266 16.8203C255.266 15.7135 254.973 14.8802 254.387 14.3203C253.788 13.7474 253.02 13.4414 252.082 13.4023ZM246.184 13.207L250.578 9.47656L255.832 9.86719C257.525 10.0104 258.723 10.4336 259.426 11.1367C260.155 11.8659 260.52 12.6602 260.52 13.5195C260.52 13.8971 260.467 14.3854 260.363 14.9844C260.22 15.6875 260.07 16.7357 259.914 18.1289C258.13 19.0534 256.776 19.5938 255.852 19.75C254.914 19.9062 254.016 19.9844 253.156 19.9844C252.831 19.9844 252.427 19.9518 251.945 19.8867C253.221 21.4753 254.465 22.2695 255.676 22.2695C257.108 22.2695 258.397 21.7292 259.543 20.6484H259.699C258.397 24.7109 255.988 26.7422 252.473 26.7422C250.65 26.7422 249.328 26.4883 248.508 25.9805C247.688 25.4727 247.062 24.737 246.633 23.7734C246.19 22.8359 245.969 21.0586 245.969 18.4414L246.066 15.1016L246.184 13.207ZM263.293 15.2969L263.43 9.67188L269.348 10.2188L269.68 14.7305C269.992 13.8451 270.272 12.9857 270.52 12.1523C270.715 11.4622 270.93 10.9284 271.164 10.5508C271.372 10.1862 271.743 9.86719 272.277 9.59375C272.785 9.32031 273.397 9.18359 274.113 9.18359C274.921 9.18359 275.812 9.3724 276.789 9.75L276.145 12.2305C275.819 13.5716 275.409 15.056 274.914 16.6836C273.352 15.6549 272.297 15.0625 271.75 14.9062C270.708 16.2734 270.09 17.3086 269.895 18.0117C269.973 19.1836 270.057 20.0885 270.148 20.7266C271.32 21.1432 272.355 21.3516 273.254 21.3516C272.707 22.888 272.036 24.5677 271.242 26.3906C268.534 26.3906 266.874 26.2279 266.262 25.9023C265.624 25.5898 264.96 25.056 264.27 24.3008C263.566 23.5326 263.215 22.0742 263.215 19.9258C263.215 18.5195 263.241 16.9766 263.293 15.2969Z" fill="#2D8700"/>
<path d="M29.2891 0.609375L29.7716 0.478371L29.6901 0.17813L29.3847 0.118611L29.2891 0.609375ZM30.4609 4.92578L30.9575 4.9842L30.9688 4.88813L30.9435 4.79478L30.4609 4.92578ZM28.1758 14.9453L27.7157 15.141L28.2639 16.4301L28.6558 15.0852L28.1758 14.9453ZM25.1484 8.71484L25.5849 8.471L25.4991 8.31724L25.3357 8.25125L25.1484 8.71484ZM8.03906 10.7461L8.40132 11.0907L8.40137 11.0907L8.03906 10.7461ZM6.04688 23.7734L6.44638 23.4728L6.4459 23.4721L6.04688 23.7734ZM11.5156 27.2891L11.3295 27.7531L11.3303 27.7535L11.5156 27.2891ZM21.6719 29.7305L21.7433 29.2356L21.7386 29.2349L21.6719 29.7305ZM35.2461 30.5703L35.6438 30.8733L36.2556 30.0703H35.2461V30.5703ZM31.8086 35.082L31.9006 35.5735L32.0897 35.5381L32.2063 35.3851L31.8086 35.082ZM4.38672 33.0898L4.70592 32.705L4.70304 32.7026L4.38672 33.0898ZM3.68359 12.4258L4.11349 12.6811L4.11475 12.679L3.68359 12.4258ZM28.8065 0.740379L29.9784 5.05679L30.9435 4.79478L29.7716 0.478371L28.8065 0.740379ZM29.9644 4.86736C29.6827 7.26109 28.9301 10.5697 27.6957 14.8054L28.6558 15.0852C29.8954 10.8313 30.6662 7.46027 30.9575 4.9842L29.9644 4.86736ZM28.6359 14.7496C27.6663 12.4697 26.6495 10.3766 25.5849 8.471L24.7119 8.95869C25.7568 10.8291 26.7582 12.8896 27.7157 15.141L28.6359 14.7496ZM25.3357 8.25125C22.7051 7.18837 20.1091 6.65234 17.5508 6.65234V7.65234C19.9664 7.65234 22.4355 8.15798 24.9611 9.17843L25.3357 8.25125ZM17.5508 6.65234C13.3849 6.65234 10.0706 7.88451 7.67676 10.4015L8.40137 11.0907C10.5648 8.81601 13.5917 7.65234 17.5508 7.65234V6.65234ZM7.67681 10.4015C5.29962 12.9002 4.10156 15.8415 4.10156 19.2031H5.10156C5.10156 16.1064 6.19517 13.4097 8.40132 11.0907L7.67681 10.4015ZM4.10156 19.2031C4.10156 21.0704 4.61173 22.7026 5.64785 24.0747L6.4459 23.4721C5.55494 22.2922 5.10156 20.8775 5.10156 19.2031H4.10156ZM5.64737 24.0741C6.6819 25.4488 8.60999 26.6627 11.3295 27.7531L11.7017 26.825C9.03064 25.754 7.31289 24.6242 6.44638 23.4728L5.64737 24.0741ZM11.3303 27.7535C14.0887 28.8541 17.517 29.6757 21.6052 30.226L21.7386 29.2349C17.7017 28.6915 14.3593 27.8854 11.7009 26.8247L11.3303 27.7535ZM21.6005 30.2253C22.9651 30.4222 24.3619 30.5795 25.7909 30.6975L25.8732 29.7009C24.4636 29.5845 23.087 29.4294 21.7433 29.2356L21.6005 30.2253ZM25.7909 30.6975C27.2187 30.8154 28.7821 30.907 30.4808 30.9723L30.5192 29.973C28.8325 29.9082 27.2839 29.8174 25.8732 29.7009L25.7909 30.6975ZM30.4808 30.9723C32.179 31.0376 33.7675 31.0703 35.2461 31.0703V30.0703C33.782 30.0703 32.2065 30.0379 30.5192 29.973L30.4808 30.9723ZM34.8484 30.2673L31.4109 34.779L32.2063 35.3851L35.6438 30.8733L34.8484 30.2673ZM31.7166 34.5906C26.6645 35.5362 21.9038 36.0078 17.4336 36.0078V37.0078C21.9738 37.0078 26.7964 36.5289 31.9006 35.5735L31.7166 34.5906ZM17.4336 36.0078C11.528 36.0078 7.32068 34.8736 4.70591 32.705L4.06752 33.4747C6.94755 35.8633 11.4381 37.0078 17.4336 37.0078V36.0078ZM4.70304 32.7026C2.0473 30.5331 0.726562 27.7333 0.726562 24.2617H-0.273438C-0.273438 28.0297 1.17927 31.1153 4.0704 33.4771L4.70304 32.7026ZM0.726562 24.2617C0.726562 20.352 1.8488 16.494 4.11348 12.6811L3.25371 12.1704C0.909011 16.118 -0.273438 20.1506 -0.273438 24.2617H0.726562ZM4.11475 12.679C6.34704 8.87771 9.40509 5.92778 13.2965 3.82258L12.8207 2.94304C8.76939 5.13472 5.57744 8.21344 3.25244 12.1726L4.11475 12.679ZM13.2965 3.82258C17.2047 1.70834 21.1014 0.660156 24.9922 0.660156V-0.339844C20.9142 -0.339844 16.8552 0.760409 12.8207 2.94304L13.2965 3.82258ZM24.9922 0.660156C26.2831 0.660156 27.683 0.805747 29.1934 1.10014L29.3847 0.118611C27.8222 -0.185955 26.3575 -0.339844 24.9922 -0.339844V0.660156ZM34.9922 2.67969L34.8426 2.2026L34.4942 2.31184L34.4922 2.67689L34.9922 2.67969ZM41.5938 0.609375L42.0936 0.622528L42.112 -0.0771611L41.4441 0.132286L41.5938 0.609375ZM41.3984 8.03125L40.8984 8.01809V8.03125H41.3984ZM41.3984 12.8359H40.8984V14.075L41.7584 13.183L41.3984 12.8359ZM44.543 9.57422V9.07422H44.3305L44.183 9.22719L44.543 9.57422ZM44.7773 9.57422L44.9249 9.09648L44.8528 9.07422H44.7773V9.57422ZM50.0312 12.1719L50.4001 11.8342L50.3976 11.8316L50.0312 12.1719ZM50.9297 21.0781L51.4251 21.1462L51.4258 21.1405L50.9297 21.0781ZM50.5781 25.5117L50.8972 25.8967L51.0671 25.7559L51.0776 25.5355L50.5781 25.5117ZM44.2109 30.0039L43.7147 29.9426L43.5883 30.9655L44.4699 30.4316L44.2109 30.0039ZM45.207 21.0781L45.7058 21.1127L45.7097 21.0566L45.701 21.001L45.207 21.0781ZM44.4844 16.4492L44.9784 16.3721L44.9757 16.3551L44.9719 16.3384L44.4844 16.4492ZM43.3516 13.0312L43.824 12.8676L43.518 11.9842L42.9531 12.7292L43.3516 13.0312ZM41.3984 15.4336L41.0393 15.0857L40.8984 15.2311V15.4336H41.3984ZM41.3594 21.7617L41.8589 21.7863L41.8591 21.7769L41.3594 21.7617ZM41.3984 26L41.4171 26.4997L41.9269 26.4806L41.8976 25.9713L41.3984 26ZM34.4062 26.8008L33.91 26.7398L33.8299 27.3911L34.4792 27.2954L34.4062 26.8008ZM34.8164 20.5312L35.3162 20.5463L35.3163 20.5437L34.8164 20.5312ZM35.1418 3.15678L41.7434 1.08646L41.4441 0.132286L34.8426 2.2026L35.1418 3.15678ZM41.0939 0.596222L40.8986 8.0181L41.8983 8.0444L42.0936 0.622528L41.0939 0.596222ZM40.8984 8.03125V12.8359H41.8984V8.03125H40.8984ZM41.7584 13.183L44.9029 9.92125L44.183 9.22719L41.0385 12.4889L41.7584 13.183ZM44.543 10.0742H44.7773V9.07422H44.543V10.0742ZM44.6298 10.052C47.2821 10.871 48.9168 11.7065 49.6649 12.5121L50.3976 11.8316C49.453 10.8144 47.5851 9.91802 44.9249 9.09648L44.6298 10.052ZM49.6625 12.5095C50.3788 13.292 50.8008 14.72 50.8008 16.9375H51.8008C51.8008 14.6498 51.3764 12.9007 50.4 11.8342L49.6625 12.5095ZM50.8008 16.9375C50.8008 17.6968 50.6811 19.0487 50.4336 21.0157L51.4258 21.1405C51.6731 19.1753 51.8008 17.7667 51.8008 16.9375H50.8008ZM50.4343 21.01C50.2881 22.0737 50.1701 23.569 50.0787 25.4879L51.0776 25.5355C51.1685 23.6264 51.2848 22.1659 51.425 21.1462L50.4343 21.01ZM50.2591 25.1267C48.3789 26.685 46.2769 28.1683 43.9519 29.5762L44.4699 30.4316C46.8325 29.001 48.9753 27.4895 50.8972 25.8967L50.2591 25.1267ZM44.7072 30.0652C45.2796 25.4337 45.6136 22.444 45.7058 21.1127L44.7082 21.0436C44.6182 22.3425 44.2881 25.3033 43.7147 29.9426L44.7072 30.0652ZM45.701 21.001L44.9784 16.3721L43.9904 16.5263L44.713 21.1552L45.701 21.001ZM44.9719 16.3384C44.8989 16.0172 44.5076 14.841 43.824 12.8676L42.8791 13.1949C43.5757 15.2059 43.9396 16.3083 43.9968 16.56L44.9719 16.3384ZM42.9531 12.7292C42.0538 13.9152 41.4193 14.6934 41.0393 15.0857L41.7576 15.7815C42.1848 15.3404 42.8524 14.5171 43.75 13.3333L42.9531 12.7292ZM40.8984 15.4336V20.375H41.8984V15.4336H40.8984ZM40.8984 20.375C40.8984 20.375 40.8984 20.3752 40.8984 20.3757C40.8984 20.3762 40.8984 20.3769 40.8984 20.3777C40.8984 20.3795 40.8984 20.3818 40.8983 20.3848C40.8983 20.3907 40.8981 20.3984 40.8979 20.4081C40.8975 20.4275 40.897 20.4534 40.8961 20.4859C40.8945 20.551 40.8921 20.6411 40.8889 20.7564C40.8824 20.987 40.8726 21.317 40.8596 21.7466L41.8591 21.7769C41.885 20.9248 41.8984 20.4501 41.8984 20.375H40.8984ZM40.86 21.7372C40.8207 22.5354 40.8008 23.189 40.8008 23.6953H41.8008C41.8008 23.2121 41.8199 22.5766 41.8588 21.7863L40.86 21.7372ZM40.8008 23.6953C40.8008 24.1155 40.8343 24.8976 40.8993 26.0287L41.8976 25.9713C41.8324 24.8368 41.8008 24.0825 41.8008 23.6953H40.8008ZM41.3798 25.5003C39.9566 25.5536 37.6019 25.8243 34.3333 26.3061L34.4792 27.2954C37.747 26.8137 40.0538 26.5506 41.4171 26.4997L41.3798 25.5003ZM34.9025 26.8618C35.1005 25.2516 35.2378 23.1447 35.3162 20.5463L34.3166 20.5162C34.2387 23.1001 34.1026 25.1729 33.91 26.7398L34.9025 26.8618ZM35.3163 20.5437C35.3815 17.9337 35.4401 11.9779 35.4922 2.68249L34.4922 2.67689C34.4401 11.9752 34.3815 17.9204 34.3166 20.5188L35.3163 20.5437ZM53 15.0234L52.5113 14.9179L52.4035 15.4168L52.9046 15.5142L53 15.0234ZM53.5273 12.582L53.4463 12.0886L53.1105 12.1438L53.0386 12.4765L53.5273 12.582ZM62.5312 9.53516H63.0312V8.74549L62.3174 9.08318L62.5312 9.53516ZM62.5312 12.9727L63.0309 12.9926L63.0312 12.9827V12.9727H62.5312ZM62.4727 14.4375L61.9731 14.4175L61.9727 14.4275V14.4375H62.4727ZM62.4922 14.9648L62.992 14.9497L62.9916 14.9365L62.9905 14.9233L62.4922 14.9648ZM62.5312 17.5625L63.031 17.5426L63.0303 17.5313L62.5312 17.5625ZM62.668 21L63.1677 20.9825L63.1676 20.9801L62.668 21ZM62.9609 26L63.047 26.4925L63.4891 26.4153L63.4599 25.9674L62.9609 26ZM55.9688 27.0547L55.4718 26.9995L55.4023 27.6253L56.0275 27.5512L55.9688 27.0547ZM56.2422 19.7305L56.7423 19.7305L56.7421 19.7225L56.2422 19.7305ZM56.1641 14.8281L56.664 14.8202L56.6524 14.0911L55.9765 14.3647L56.1641 14.8281ZM61.3203 1.64453L61.6671 1.28436L61.6638 1.28121L61.3203 1.64453ZM61.3203 6.74219L61.6706 7.09898L61.6739 7.09574L61.3203 6.74219ZM56.2617 6.74219L56.6153 6.38862L56.612 6.38535L56.2617 6.74219ZM56.2617 1.68359L56.6153 2.03716L56.6186 2.03383L56.2617 1.68359ZM53.4887 15.129L54.0161 12.6876L53.0386 12.4765L52.5113 14.9179L53.4887 15.129ZM53.6083 13.0754C56.2861 12.6358 59.3334 11.6011 62.7451 9.98713L62.3174 9.08318C58.9583 10.6723 56.003 11.6689 53.4463 12.0886L53.6083 13.0754ZM62.0312 9.53516V12.9727H63.0312V9.53516H62.0312ZM62.0316 12.9527L61.9731 14.4175L62.9723 14.4575L63.0309 12.9926L62.0316 12.9527ZM61.9727 14.4375C61.9727 14.6435 61.9795 14.8334 61.9939 15.0064L62.9905 14.9233C62.9788 14.7837 62.9727 14.6222 62.9727 14.4375H61.9727ZM61.9924 14.98C62.0052 15.4022 62.0117 15.9889 62.0117 16.7422H63.0117C63.0117 15.9851 63.0052 15.3868 62.992 14.9497L61.9924 14.98ZM62.0117 16.7422C62.0117 17.0856 62.0183 17.3706 62.0322 17.5937L63.0303 17.5313C63.0182 17.3377 63.0117 17.0758 63.0117 16.7422H62.0117ZM62.0316 17.5824L62.1684 21.0199L63.1676 20.9801L63.0309 17.5426L62.0316 17.5824ZM62.1683 21.0175C62.1946 21.7688 62.2929 23.4435 62.462 26.0326L63.4599 25.9674C63.2905 23.3742 63.1934 21.7156 63.1677 20.9825L62.1683 21.0175ZM62.8749 25.5075C60.1986 25.9752 57.8774 26.3252 55.91 26.5582L56.0275 27.5512C58.0185 27.3155 60.3587 26.9623 63.047 26.4925L62.8749 25.5075ZM56.4657 27.1099C56.6511 25.4409 56.7422 22.9771 56.7422 19.7305H55.7422C55.7422 22.9682 55.651 25.3872 55.4718 26.9995L56.4657 27.1099ZM56.7421 19.7225L56.664 14.8202L55.6641 14.8361L55.7423 19.7384L56.7421 19.7225ZM55.9765 14.3647C55.4927 14.5605 54.9708 14.6602 54.4062 14.6602V15.6602C55.0917 15.6602 55.7417 15.5385 56.3517 15.2916L55.9765 14.3647ZM54.4062 14.6602C53.9701 14.6602 53.5333 14.6178 53.0954 14.5326L52.9046 15.5142C53.4042 15.6114 53.9049 15.6602 54.4062 15.6602V14.6602ZM58.7812 1.12891C59.6287 1.12891 60.3525 1.41764 60.9768 2.00785L61.6638 1.28121C60.8558 0.517253 59.8869 0.128906 58.7812 0.128906V1.12891ZM60.9735 2.00469C61.5716 2.58069 61.875 3.3067 61.875 4.22266H62.875C62.875 3.05528 62.4752 2.06253 61.6671 1.28437L60.9735 2.00469ZM61.875 4.22266C61.875 5.06392 61.578 5.77736 60.9668 6.38863L61.6739 7.09574C62.4688 6.30077 62.875 5.33452 62.875 4.22266H61.875ZM60.97 6.38541C60.3445 6.99958 59.6228 7.29688 58.7812 7.29688V8.29688C59.8928 8.29688 60.8639 7.89105 61.6706 7.09897L60.97 6.38541ZM58.7812 7.29688C57.94 7.29688 57.2265 6.99991 56.6153 6.38863L55.9082 7.09574C56.7031 7.89072 57.6694 8.29688 58.7812 8.29688V7.29688ZM56.612 6.38535C56.0051 5.78973 55.707 5.07868 55.707 4.22266H54.707C54.707 5.34579 55.1121 6.31443 55.9115 7.09903L56.612 6.38535ZM55.707 4.22266C55.707 3.3664 56.0054 2.64701 56.6153 2.03715L55.9082 1.33004C55.1118 2.12642 54.707 3.09974 54.707 4.22266H55.707ZM56.6186 2.03383C57.2142 1.42698 57.9252 1.12891 58.7812 1.12891V0.128906C57.6581 0.128906 56.6895 0.533959 55.9049 1.33336L56.6186 2.03383ZM67.6875 2.5625L67.5639 2.07802L67.1929 2.17266L67.1875 2.55553L67.6875 2.5625ZM71.5156 1.58594L71.6392 2.07047L71.6461 2.06862L71.5156 1.58594ZM74.4062 0.804688L74.9054 0.833097L74.9448 0.141189L74.2758 0.322006L74.4062 0.804688ZM73.5859 15.2188L73.0867 15.1903L73.0866 15.1929L73.5859 15.2188ZM73.293 20.8828L72.7936 20.857L72.7795 21.1301L73.0018 21.2893L73.293 20.8828ZM76.5547 22.9727H77.0547V22.6848L76.8058 22.5403L76.5547 22.9727ZM76.5547 23.1094L76.8957 23.475L77.0547 23.3267V23.1094H76.5547ZM72.6484 27.3867L72.5456 27.876L72.8573 27.9415L73.0484 27.6867L72.6484 27.3867ZM68.625 25.0625L68.2245 25.3618L68.2261 25.3639L68.625 25.0625ZM67.4141 16.3906L66.9146 16.3683L66.9145 16.3691L67.4141 16.3906ZM67.8111 3.04698L71.6392 2.07042L71.392 1.10145L67.5639 2.07802L67.8111 3.04698ZM71.6461 2.06862L74.5367 1.28737L74.2758 0.322006L71.3852 1.10326L71.6461 2.06862ZM73.9071 0.776278L73.0867 15.1903L74.0851 15.2472L74.9054 0.833097L73.9071 0.776278ZM73.0866 15.1929L72.7936 20.857L73.7923 20.9086L74.0853 15.2446L73.0866 15.1929ZM73.0018 21.2893C73.9804 21.9902 75.0813 22.6953 76.3036 23.4051L76.8058 22.5403C75.6062 21.8437 74.5326 21.1557 73.5841 20.4763L73.0018 21.2893ZM76.0547 22.9727V23.1094H77.0547V22.9727H76.0547ZM76.2136 22.7437C74.6468 24.2052 73.324 25.6527 72.2484 27.0867L73.0484 27.6867C74.0823 26.3083 75.3636 24.9042 76.8957 23.475L76.2136 22.7437ZM72.7513 26.8974C71.042 26.5382 69.8197 25.8143 69.0239 24.7611L68.2261 25.3639C69.2011 26.6544 70.6612 27.48 72.5456 27.876L72.7513 26.8974ZM69.0255 24.7632C68.2238 23.6903 67.7969 22.2182 67.7969 20.2969H66.7969C66.7969 22.3599 67.2554 24.0649 68.2245 25.3618L69.0255 24.7632ZM67.7969 20.2969C67.7969 19.5143 67.8355 18.2216 67.9136 16.4122L66.9145 16.3691C66.8364 18.1794 66.7969 19.4909 66.7969 20.2969H67.7969ZM67.9136 16.413C67.9921 14.6587 68.0833 10.0402 68.1875 2.56947L67.1875 2.55553C67.0833 10.0327 66.9923 14.633 66.9146 16.3683L67.9136 16.413ZM84.25 13.3633L84.3272 12.8693L83.7359 12.7769L83.7501 13.3752L84.25 13.3633ZM84.4453 21.5664L83.9455 21.5783L83.9732 22.7456L84.7989 21.92L84.4453 21.5664ZM84.6211 21.3906L84.9746 21.7442L84.6211 21.3906ZM84.7773 21.2344L85.1309 21.5879L85.1766 21.5422L85.2092 21.4863L84.7773 21.2344ZM85.1484 20.6289L84.7292 20.3564L84.7257 20.3619L85.1484 20.6289ZM85.5977 19.9062L86.0287 20.1598L86.0324 20.1533L85.5977 19.9062ZM88.6055 14.6133L89.0402 14.8603L89.3086 14.3879L88.8156 14.1596L88.6055 14.6133ZM95.4023 26L95.492 26.4919L95.9783 26.4032L95.8952 25.916L95.4023 26ZM88.5469 27.25L88.0471 27.2344L88.0278 27.8529L88.6366 27.7419L88.5469 27.25ZM88.0586 19.5742L88.552 19.493L88.3116 18.0323L87.617 19.3396L88.0586 19.5742ZM85.3633 23.0898L84.991 22.7561L84.9907 22.7564L85.3633 23.0898ZM82.1602 26.8594L82.0148 27.3378L82.3459 27.4384L82.5567 27.164L82.1602 26.8594ZM78.8594 25.668L78.3664 25.7512L78.4109 26.015L78.655 26.1243L78.8594 25.668ZM78.9961 15.2578L78.5359 15.0622L78.5347 15.0651L78.9961 15.2578ZM84.6602 9.08594L84.6832 8.58647L84.5207 8.57897L84.3849 8.66855L84.6602 9.08594ZM88.4688 9.82812L88.3388 10.3109L88.9449 10.4741L88.9684 9.8468L88.4688 9.82812ZM88.625 1.97656L88.5335 1.48501L88.125 1.56107V1.97656H88.625ZM95.4805 0.648438L95.9785 0.692925L96.0398 0.0070778L95.3686 0.161108L95.4805 0.648438ZM94.9336 22.1328L94.4349 22.1691L94.4353 22.1736L94.9336 22.1328ZM83.7501 13.3752L83.9455 21.5783L84.9452 21.5545L84.7499 13.3514L83.7501 13.3752ZM84.7989 21.92C84.8423 21.8766 84.8515 21.8673 84.8916 21.8272C84.8941 21.8248 84.8919 21.8269 84.8944 21.8244C84.8945 21.8243 84.8946 21.8242 84.8947 21.8241C84.8948 21.824 84.895 21.8239 84.8951 21.8238C84.8952 21.8236 84.8953 21.8235 84.8954 21.8234C84.8955 21.8233 84.8956 21.8232 84.8957 21.8231C84.8959 21.823 84.896 21.8228 84.8961 21.8227C84.8962 21.8226 84.8963 21.8225 84.8964 21.8224C84.8965 21.8223 84.8967 21.8222 84.8968 21.8221C84.8969 21.8219 84.897 21.8218 84.8971 21.8217C84.8977 21.8211 84.8972 21.8216 84.8978 21.821C84.8979 21.8209 84.898 21.8208 84.8981 21.8207C84.8982 21.8206 84.8984 21.8205 84.8985 21.8203C84.8991 21.8197 84.8992 21.8196 84.8998 21.819C84.901 21.8178 84.9 21.8188 84.9012 21.8176C84.9018 21.817 84.9013 21.8176 84.9019 21.817C84.9025 21.8164 84.9019 21.8169 84.9025 21.8163C84.9074 21.8115 84.9031 21.8157 84.9079 21.8109C84.9103 21.8085 84.9082 21.8106 84.9106 21.8082C84.9107 21.8081 84.9109 21.808 84.911 21.8079C84.9111 21.8077 84.9112 21.8076 84.9113 21.8075C84.9114 21.8074 84.9115 21.8073 84.9116 21.8072C84.9117 21.8071 84.9119 21.807 84.912 21.8069C84.9123 21.8066 84.9123 21.8065 84.9126 21.8062C84.9128 21.8061 84.9129 21.806 84.913 21.8059C84.9131 21.8057 84.9132 21.8056 84.9133 21.8055C84.9181 21.8008 84.9192 21.7996 84.9239 21.7949C84.9262 21.7926 84.9242 21.7946 84.9265 21.7923C84.9266 21.7922 84.9268 21.7921 84.9269 21.792C84.927 21.7918 84.9271 21.7917 84.9272 21.7916C84.9275 21.7913 84.9276 21.7913 84.9278 21.791C84.929 21.7898 84.928 21.7908 84.9292 21.7897C84.9293 21.7896 84.9294 21.7895 84.9295 21.7893C84.9296 21.7892 84.9297 21.7891 84.9298 21.789C84.9299 21.7889 84.93 21.7888 84.9301 21.7887C84.9302 21.7886 84.9304 21.7885 84.9305 21.7884C84.931 21.7878 84.9312 21.7876 84.9318 21.7871C84.9319 21.787 84.932 21.7868 84.9321 21.7867C84.9322 21.7866 84.9323 21.7865 84.9324 21.7864C84.9325 21.7863 84.9326 21.7862 84.9327 21.7861C84.9328 21.786 84.933 21.7859 84.9331 21.7858C84.9332 21.7857 84.9333 21.7855 84.9334 21.7854C84.9335 21.7853 84.9336 21.7852 84.9337 21.7851C84.9343 21.7845 84.9338 21.785 84.9344 21.7845C84.9436 21.7752 84.9458 21.773 84.9548 21.764C84.9593 21.7596 84.9554 21.7634 84.9598 21.759C84.9604 21.7584 84.9599 21.7589 84.9605 21.7584C84.9607 21.7581 84.9608 21.758 84.9611 21.7578C84.9622 21.7566 84.9612 21.7576 84.9623 21.7565C84.9645 21.7543 84.9626 21.7562 84.9648 21.754C84.9649 21.7539 84.965 21.7538 84.9651 21.7537C84.9652 21.7536 84.9653 21.7535 84.9654 21.7534C84.9655 21.7533 84.9656 21.7532 84.9657 21.7531C84.9658 21.753 84.9659 21.7529 84.966 21.7528C84.9666 21.7522 84.9661 21.7527 84.9667 21.7522C84.9668 21.7521 84.9669 21.752 84.967 21.7519C84.9671 21.7518 84.9672 21.7516 84.9673 21.7515C84.9674 21.7514 84.9675 21.7513 84.9676 21.7512C84.9677 21.7511 84.9678 21.751 84.9679 21.7509C84.968 21.7508 84.9681 21.7507 84.9682 21.7506C84.9683 21.7505 84.9684 21.7504 84.9685 21.7503C84.9696 21.7492 84.9687 21.7502 84.9697 21.7491C84.9703 21.7485 84.9698 21.749 84.9704 21.7485C84.9705 21.7484 84.9706 21.7483 84.9707 21.7482C84.9708 21.7481 84.9709 21.748 84.971 21.7479C84.9711 21.7477 84.9712 21.7476 84.9713 21.7475C84.9714 21.7474 84.9715 21.7473 84.9716 21.7472C84.9717 21.7471 84.9718 21.747 84.9719 21.7469C84.972 21.7468 84.9721 21.7467 84.9722 21.7466C84.9733 21.7455 84.9723 21.7465 84.9734 21.7454C84.974 21.7449 84.9741 21.7447 84.9746 21.7442L84.2675 21.0371C84.2347 21.0699 84.1376 21.167 84.0918 21.2129L84.7989 21.92ZM84.9746 21.7442C84.9774 21.7415 84.975 21.7438 84.9777 21.7411C84.979 21.7398 84.9779 21.741 84.9792 21.7396C84.9795 21.7393 84.9796 21.7392 84.98 21.7389C84.9801 21.7387 84.9802 21.7386 84.9803 21.7385C84.9805 21.7384 84.9806 21.7382 84.9807 21.7381C84.9808 21.738 84.981 21.7379 84.9811 21.7377C84.9812 21.7376 84.9813 21.7375 84.9815 21.7374C84.9821 21.7367 84.9815 21.7373 84.9822 21.7366C84.9835 21.7353 84.9824 21.7364 84.9837 21.7351C84.9864 21.7324 84.984 21.7348 84.9867 21.7321C84.9919 21.7269 84.9874 21.7314 84.9926 21.7262C84.9927 21.7261 84.9929 21.726 84.993 21.7258C84.9931 21.7257 84.9932 21.7256 84.9933 21.7255C84.9935 21.7254 84.9936 21.7252 84.9937 21.7251C84.9938 21.725 84.994 21.7249 84.9941 21.7247C84.9942 21.7246 84.9943 21.7245 84.9944 21.7244C84.9946 21.7243 84.9947 21.7241 84.9948 21.724C84.9955 21.7234 84.9949 21.7239 84.9955 21.7233C84.9981 21.7207 84.9959 21.723 84.9985 21.7204C84.9997 21.7191 84.9986 21.7202 84.9999 21.7189C85.0002 21.7186 85.0003 21.7185 85.0006 21.7182C85.0007 21.7181 85.0009 21.718 85.001 21.7178C85.0011 21.7177 85.0012 21.7176 85.0013 21.7175C85.0017 21.7172 85.0017 21.7171 85.0021 21.7168C85.0027 21.7161 85.0021 21.7167 85.0028 21.716C85.0034 21.7154 85.0036 21.7153 85.0042 21.7146C85.0093 21.7096 85.0049 21.7139 85.0099 21.7089C85.01 21.7088 85.0101 21.7087 85.0102 21.7086C85.0104 21.7085 85.0105 21.7083 85.0106 21.7082C85.0112 21.7076 85.0107 21.7081 85.0113 21.7075C85.0126 21.7063 85.0115 21.7074 85.0127 21.7061C85.014 21.7049 85.0143 21.7046 85.0155 21.7033C85.0167 21.7021 85.0157 21.7032 85.0169 21.7019C85.0175 21.7013 85.0177 21.7012 85.0183 21.7005C85.0184 21.7004 85.0185 21.7003 85.0186 21.7002C85.0187 21.7001 85.0189 21.7 85.019 21.6999C85.0193 21.6996 85.0194 21.6995 85.0197 21.6992C85.0209 21.6979 85.0198 21.699 85.021 21.6978C85.0259 21.693 85.0217 21.6972 85.0265 21.6923C85.0266 21.6922 85.0267 21.6921 85.0268 21.692C85.0269 21.6919 85.0271 21.6918 85.0272 21.6917C85.0278 21.6911 85.0272 21.6916 85.0278 21.691C85.029 21.6898 85.028 21.6908 85.0292 21.6896C85.0304 21.6884 85.0307 21.6881 85.0319 21.687C85.0331 21.6858 85.032 21.6868 85.0332 21.6856C85.0335 21.6853 85.0336 21.6853 85.0339 21.685C85.034 21.6848 85.0341 21.6847 85.0342 21.6846C85.0343 21.6845 85.0344 21.6844 85.0345 21.6843C85.0351 21.6837 85.0346 21.6842 85.0352 21.6836C85.0358 21.683 85.0353 21.6836 85.0359 21.683C85.0364 21.6824 85.0366 21.6822 85.0372 21.6817C85.0418 21.677 85.0378 21.681 85.0424 21.6764C85.043 21.6759 85.0425 21.6764 85.043 21.6758C85.0432 21.6757 85.0433 21.6756 85.0434 21.6755C85.0435 21.6754 85.0436 21.6752 85.0437 21.6751C85.0438 21.675 85.0439 21.6749 85.044 21.6748C85.0441 21.6747 85.0442 21.6746 85.0443 21.6745C85.0444 21.6744 85.0446 21.6743 85.0447 21.6742C85.0448 21.6741 85.0449 21.674 85.045 21.6738C85.0461 21.6727 85.0464 21.6724 85.0475 21.6713C85.0477 21.6712 85.0478 21.6711 85.0479 21.671C85.048 21.6709 85.0481 21.6707 85.0482 21.6706C85.0483 21.6705 85.0484 21.6704 85.0485 21.6703C85.0486 21.6702 85.0487 21.6701 85.0488 21.67C85.05 21.6689 85.049 21.6699 85.0501 21.6687C85.0523 21.6665 85.0504 21.6685 85.0526 21.6662C85.0571 21.6618 85.0582 21.6606 85.0625 21.6563C85.0647 21.6541 85.0652 21.6536 85.0674 21.6514C85.0684 21.6504 85.0687 21.6501 85.0698 21.649C85.0708 21.648 85.0699 21.6489 85.071 21.6479C85.0715 21.6473 85.071 21.6478 85.0716 21.6473C85.0717 21.6472 85.0718 21.6471 85.0719 21.647C85.072 21.6469 85.0721 21.6468 85.0722 21.6467C85.0743 21.6446 85.0724 21.6464 85.0745 21.6443C85.075 21.6438 85.0746 21.6443 85.0751 21.6437C85.0752 21.6436 85.0753 21.6435 85.0754 21.6434C85.0755 21.6433 85.0756 21.6432 85.0757 21.6431C85.0758 21.6431 85.0759 21.643 85.076 21.6429C85.0761 21.6428 85.0762 21.6427 85.0763 21.6426C85.0765 21.6423 85.0766 21.6422 85.0768 21.642C85.0769 21.6419 85.077 21.6418 85.0771 21.6417C85.0772 21.6416 85.0773 21.6415 85.0774 21.6414C85.0777 21.6411 85.0777 21.6411 85.078 21.6408C85.0785 21.6403 85.0786 21.6402 85.0792 21.6397C85.0812 21.6376 85.0794 21.6394 85.0815 21.6374C85.0971 21.6218 85.084 21.6349 85.0992 21.6197C85.1011 21.6178 85.0994 21.6194 85.1013 21.6175C85.1022 21.6166 85.1014 21.6174 85.1023 21.6165C85.1024 21.6164 85.1025 21.6163 85.1026 21.6162C85.1027 21.6161 85.1028 21.616 85.1029 21.616C85.1033 21.6155 85.1029 21.6159 85.1034 21.6154C85.1039 21.615 85.104 21.6149 85.1044 21.6144C85.1045 21.6143 85.1046 21.6142 85.1047 21.6141C85.1048 21.614 85.1049 21.614 85.105 21.6139C85.105 21.6138 85.1051 21.6137 85.1052 21.6136C85.1053 21.6135 85.1054 21.6134 85.1055 21.6133C85.1057 21.6131 85.1058 21.6131 85.106 21.6128C85.1061 21.6127 85.1062 21.6127 85.1063 21.6126C85.1063 21.6125 85.1064 21.6124 85.1065 21.6123C85.107 21.6118 85.1071 21.6117 85.1076 21.6113C85.1147 21.6041 85.1086 21.6102 85.1156 21.6032C85.1174 21.6014 85.1178 21.601 85.1196 21.5993C85.123 21.5958 85.12 21.5988 85.1234 21.5954C85.1268 21.592 85.1276 21.5912 85.1309 21.5879L84.4238 20.8808C84.4102 20.8944 84.4072 20.8974 84.3921 20.9126C84.3766 20.928 84.3725 20.9321 84.3554 20.9492C84.339 20.9656 84.2904 21.0142 84.2675 21.0371L84.9746 21.7442ZM85.2092 21.4863C85.2962 21.3372 85.4164 21.141 85.5712 20.8959L84.7257 20.3619C84.568 20.6117 84.4408 20.819 84.3455 20.9824L85.2092 21.4863ZM85.5677 20.9014C85.7402 20.636 85.894 20.3887 86.0286 20.1598L85.1667 19.6527C85.0409 19.8665 84.8952 20.101 84.7292 20.3564L85.5677 20.9014ZM86.0324 20.1533L89.0402 14.8603L88.1708 14.3662L85.1629 19.6592L86.0324 20.1533ZM88.8156 14.1596C87.5278 13.5631 86.0294 13.1352 84.3272 12.8693L84.1728 13.8573C85.8039 14.1121 87.2092 14.5176 88.3953 15.067L88.8156 14.1596ZM95.3127 25.5081L88.4572 26.7581L88.6366 27.7419L95.492 26.4919L95.3127 25.5081ZM89.0466 27.2656C89.0599 26.8423 89.0664 26.3486 89.0664 25.7852H88.0664C88.0664 26.3415 88.0599 26.8243 88.0471 27.2344L89.0466 27.2656ZM89.0664 25.7852C89.0664 23.6746 88.8949 21.5771 88.552 19.493L87.5652 19.6554C87.8994 21.6859 88.0664 23.729 88.0664 25.7852H89.0664ZM87.617 19.3396C87.2048 20.1157 86.3417 21.2495 84.991 22.7561L85.7356 23.4236C87.0932 21.9093 88.027 20.6994 88.5002 19.8088L87.617 19.3396ZM84.9907 22.7564C83.5431 24.3735 82.4654 25.6412 81.7636 26.5548L82.5567 27.164C83.2351 26.2807 84.2928 25.0354 85.7358 23.4233L84.9907 22.7564ZM82.3056 26.381C80.9894 25.981 79.9105 25.5908 79.0637 25.2116L78.655 26.1243C79.553 26.5264 80.6747 26.9305 82.0148 27.3378L82.3056 26.381ZM79.3524 25.5847C79.0193 23.6116 78.8516 21.4264 78.8516 19.0273H77.8516C77.8516 21.472 78.0224 23.7139 78.3664 25.7512L79.3524 25.5847ZM78.8516 19.0273C78.8516 17.5884 79.0602 16.4015 79.4575 15.4505L78.5347 15.0651C78.0726 16.1714 77.8516 17.4976 77.8516 19.0273H78.8516ZM79.4563 15.4534C79.8696 14.4809 80.5795 13.4416 81.6081 12.3368L80.8762 11.6554C79.7955 12.8162 79.008 13.9514 78.5359 15.0622L79.4563 15.4534ZM81.6081 12.3368C82.6373 11.2314 83.7464 10.2876 84.9355 9.50332L84.3849 8.66855C83.126 9.49889 81.9565 10.4951 80.8762 11.6554L81.6081 12.3368ZM84.6371 9.58541C85.4264 9.62183 86.6522 9.85685 88.3388 10.3109L88.5987 9.34532C86.8999 8.88794 85.5867 8.62817 84.6832 8.58647L84.6371 9.58541ZM88.9684 9.8468C89.0728 7.05496 89.125 4.43149 89.125 1.97656H88.125C88.125 4.41747 88.0731 7.02838 87.9691 9.80945L88.9684 9.8468ZM88.7165 2.46811C92.4877 1.7659 94.7854 1.32096 95.5923 1.13577L95.3686 0.161108C94.587 0.340494 92.3144 0.780972 88.5335 1.48501L88.7165 2.46811ZM94.9825 0.60395C94.5122 5.8683 94.2773 11.5734 94.2773 17.7188H95.2773C95.2773 11.5984 95.5113 5.92337 95.9785 0.692925L94.9825 0.60395ZM94.2773 17.7188C94.2773 19.2406 94.3298 20.7241 94.4349 22.1691L95.4323 22.0965C95.329 20.6769 95.2773 19.2177 95.2773 17.7188H94.2773ZM94.4353 22.1736C94.5534 23.6171 94.7112 24.921 94.9095 26.084L95.8952 25.916C95.7029 24.7874 95.5482 23.5131 95.4319 22.092L94.4353 22.1736ZM103.195 9.28125L103.208 8.7814L103.041 8.77729L102.906 8.87354L103.195 9.28125ZM108.84 9.78906L108.96 9.30368L108.957 9.30302L108.84 9.78906ZM111.848 11.6836L112.238 11.3706L112.233 11.3656L111.848 11.6836ZM113.039 15.4336L113.121 15.9268L113.539 15.8572V15.4336H113.039ZM107.277 16.9766L106.788 17.078L106.907 17.6529L107.455 17.4438L107.277 16.9766ZM104.934 14.3203L105.058 13.8361L104.494 13.6906L104.436 14.2708L104.934 14.3203ZM105.148 20.7852L105.519 20.4494L105.148 20.7852ZM106.945 21.8398L107.119 21.3707L107.11 21.3678L106.945 21.8398ZM112.355 20.3945L112.709 20.041L112.305 19.6373L111.958 20.0907L112.355 20.3945ZM112.434 20.4727L112.905 20.6403L113.011 20.3426L112.787 20.1191L112.434 20.4727ZM109.621 25.1211L109.292 24.7443L109.29 24.7462L109.621 25.1211ZM100.695 25.5898L100.417 26.005L100.419 26.0067L100.695 25.5898ZM98.7031 23.1484L99.1749 22.9827L99.1728 22.9771L98.7031 23.1484ZM98.3711 13.207L98.0304 12.8411L97.8826 12.9787L97.8718 13.1803L98.3711 13.207ZM103.183 9.7811C105.811 9.84614 107.646 10.0152 108.723 10.2751L108.957 9.30302C107.768 9.01607 105.84 8.84657 103.208 8.7814L103.183 9.7811ZM108.72 10.2744C109.826 10.5481 110.736 11.1209 111.462 12.0016L112.233 11.3656C111.371 10.3192 110.275 9.62898 108.96 9.30369L108.72 10.2744ZM111.458 11.9966C112.168 12.8813 112.539 14.0145 112.539 15.4336H113.539C113.539 13.8319 113.116 12.4651 112.238 11.3706L111.458 11.9966ZM112.957 14.9404C110.895 15.2841 108.942 15.8067 107.099 16.5094L107.455 17.4438C109.232 16.7662 111.121 16.2602 113.121 15.9268L112.957 14.9404ZM107.767 16.8751C107.604 16.0883 107.303 15.42 106.842 14.8977C106.378 14.3722 105.776 14.0211 105.058 13.8361L104.809 14.8045C105.354 14.945 105.774 15.1994 106.092 15.5593C106.412 15.9225 106.651 16.4195 106.788 17.078L107.767 16.8751ZM104.436 14.2708C104.202 16.6256 104.082 18.27 104.082 19.1836H105.082C105.082 18.3263 105.197 16.7286 105.431 14.3698L104.436 14.2708ZM104.082 19.1836C104.082 19.9379 104.304 20.5979 104.778 21.1209L105.519 20.4494C105.238 20.1391 105.082 19.7314 105.082 19.1836H104.082ZM104.778 21.1209C105.234 21.6243 105.92 22.0116 106.78 22.3119L107.11 21.3678C106.33 21.0952 105.818 20.7794 105.519 20.4494L104.778 21.1209ZM106.772 22.3089C107.658 22.6359 108.486 22.8086 109.25 22.8086V21.8086C108.634 21.8086 107.926 21.6688 107.118 21.3708L106.772 22.3089ZM109.25 22.8086C110.562 22.8086 111.728 22.0377 112.753 20.6984L111.958 20.0907C111.03 21.3035 110.125 21.8086 109.25 21.8086V22.8086ZM112.002 20.7481L112.08 20.8262L112.787 20.1191L112.709 20.041L112.002 20.7481ZM111.963 20.305C111.222 22.385 110.323 23.8459 109.292 24.7443L109.95 25.4979C111.159 24.4432 112.134 22.8051 112.905 20.6403L111.963 20.305ZM109.29 24.7462C108.311 25.6105 106.797 26.0859 104.66 26.0859V27.0859C106.924 27.0859 108.718 26.5848 109.952 25.496L109.29 24.7462ZM104.66 26.0859C103.083 26.0859 101.867 25.7664 100.971 25.173L100.419 26.0067C101.529 26.7414 102.956 27.0859 104.66 27.0859V26.0859ZM100.974 25.1747C100.058 24.5603 99.4719 23.8281 99.1749 22.9827L98.2314 23.3142C98.6114 24.3958 99.353 25.2912 100.417 26.005L100.974 25.1747ZM99.1728 22.9771C98.8492 22.09 98.6758 20.8789 98.6758 19.3203H97.6758C97.6758 20.9388 97.8539 22.2798 98.2334 23.3198L99.1728 22.9771ZM98.6758 19.3203C98.6758 17.6917 98.7404 15.6636 98.8704 13.2337L97.8718 13.1803C97.7413 15.6203 97.6758 17.6676 97.6758 19.3203H98.6758ZM98.7118 13.573C100.206 12.182 101.797 10.8873 103.485 9.68896L102.906 8.87354C101.182 10.0971 99.5572 11.4196 98.0304 12.8411L98.7118 13.573ZM121.008 14.2422L121.104 13.7516L120.473 13.6275L120.509 14.2701L121.008 14.2422ZM121.438 21.918L120.938 21.9459L121.005 23.1439L121.809 22.2528L121.438 21.918ZM123.566 19.2422L123.974 19.5318L123.976 19.5293L123.566 19.2422ZM125.363 16.4297L125.798 16.6764L125.954 16.4024L125.774 16.144L125.363 16.4297ZM121.086 9.53516L121.215 9.05204L120.97 8.98687L120.773 9.14512L121.086 9.53516ZM124.621 10.2188L124.529 10.7103L124.533 10.7108L124.621 10.2188ZM128.488 11.0391L128.658 10.5689L128.648 10.5651L128.637 10.5618L128.488 11.0391ZM131.457 14.125L130.98 14.2745L130.981 14.2766L131.457 14.125ZM131.867 17.6211L132.367 17.6296V17.6211H131.867ZM131.77 23.3633L131.27 23.3548V23.3633H131.77ZM131.965 25.7461L132.044 26.2397L132.529 26.1615L132.46 25.6754L131.965 25.7461ZM125.305 27.4258L124.809 27.3606L124.71 28.1162L125.442 27.9065L125.305 27.4258ZM125.656 20.0625H126.156V18.2755L125.229 19.803L125.656 20.0625ZM123.723 22.3672L124.092 22.7039L123.723 22.3672ZM119.152 27.1719L119.024 27.6552L119.307 27.73L119.51 27.5208L119.152 27.1719ZM115.637 26L115.139 26.0523L115.169 26.3352L115.428 26.4542L115.637 26ZM115.324 23.6953L114.829 23.7627L114.83 23.7695L115.324 23.6953ZM116.184 14.4766L116.61 14.737L116.613 14.7325L116.184 14.4766ZM120.509 14.2701L120.938 21.9459L121.937 21.89L121.507 14.2142L120.509 14.2701ZM121.809 22.2528C122.54 21.4424 123.261 20.5351 123.974 19.5318L123.159 18.9526C122.465 19.9285 121.768 20.805 121.066 21.5832L121.809 22.2528ZM123.976 19.5293C124.686 18.5163 125.294 17.5653 125.798 16.6764L124.928 16.183C124.443 17.0389 123.853 17.9628 123.157 18.9551L123.976 19.5293ZM125.774 16.144C124.944 14.9517 123.328 14.1885 121.104 13.7516L120.911 14.7328C123.062 15.1553 124.351 15.8504 124.953 16.7154L125.774 16.144ZM120.957 10.0183C121.177 10.0768 122.385 10.3098 124.529 10.7103L124.713 9.72725C122.535 9.32045 121.386 9.09769 121.215 9.05204L120.957 10.0183ZM124.533 10.7108C126.491 11.0634 127.749 11.3319 128.339 11.5163L128.637 10.5618C127.978 10.3556 126.657 10.0772 124.71 9.72666L124.533 10.7108ZM128.318 11.5093C128.865 11.7069 129.391 12.0237 129.896 12.4689L130.557 11.7186C129.969 11.2003 129.336 10.814 128.658 10.5689L128.318 11.5093ZM129.896 12.4689C130.359 12.8767 130.727 13.4674 130.98 14.2745L131.934 13.9755C131.64 13.0379 131.188 12.2744 130.557 11.7186L129.896 12.4689ZM130.981 14.2766C131.232 15.0659 131.367 16.1731 131.367 17.6211H132.367C132.367 16.1264 132.229 14.9029 131.933 13.9734L130.981 14.2766ZM131.367 17.6126L131.27 23.3548L132.269 23.3718L132.367 17.6296L131.367 17.6126ZM131.27 23.3633C131.27 24.0707 131.337 24.8896 131.47 25.8168L132.46 25.6754C132.332 24.7796 132.27 24.01 132.27 23.3633H131.27ZM131.885 25.2525C130.641 25.4532 128.393 26.0214 125.167 26.9451L125.442 27.9065C128.674 26.9812 130.867 26.4296 132.044 26.2397L131.885 25.2525ZM125.8 27.4909C126.039 25.6754 126.156 23.1959 126.156 20.0625H125.156C125.156 23.1791 125.039 25.6085 124.809 27.3606L125.8 27.4909ZM125.229 19.803C125.038 20.1173 124.431 20.8469 123.353 22.0304L124.092 22.7039C125.149 21.5438 125.832 20.7369 126.084 20.322L125.229 19.803ZM123.353 22.0304C122.291 23.1962 120.772 24.7931 118.794 26.8229L119.51 27.5208C121.491 25.4881 123.019 23.8819 124.092 22.7039L123.353 22.0304ZM119.28 26.6886C117.768 26.2877 116.628 25.9057 115.846 25.5458L115.428 26.4542C116.286 26.8495 117.49 27.2488 119.024 27.6552L119.28 26.6886ZM116.134 25.9477C116.081 25.4413 115.975 24.6639 115.819 23.6211L114.83 23.7695C114.986 24.81 115.089 25.5691 115.139 26.0523L116.134 25.9477ZM115.82 23.6279C115.601 22.0174 115.492 20.5691 115.492 19.2812H114.492C114.492 20.6236 114.605 22.118 114.829 23.7627L115.82 23.6279ZM115.492 19.2812C115.492 17.4496 115.875 15.9434 116.61 14.7369L115.757 14.2162C114.904 15.6139 114.492 17.3108 114.492 19.2812H115.492ZM116.613 14.7325C117.332 13.5259 118.905 11.9257 121.399 9.92519L120.773 9.14512C118.267 11.155 116.571 12.8491 115.754 14.2206L116.613 14.7325ZM135.598 15.2969L136.097 15.3124L136.098 15.309L135.598 15.2969ZM135.734 9.67188L135.78 9.174L135.248 9.12476L135.235 9.65973L135.734 9.67188ZM141.652 10.2188L142.151 10.1821L142.12 9.75983L141.698 9.72087L141.652 10.2188ZM141.984 14.7305L141.486 14.7672L142.456 14.8969L141.984 14.7305ZM142.824 12.1523L143.304 12.2947L143.305 12.2885L142.824 12.1523ZM143.469 10.5508L143.894 10.8145L143.898 10.8067L143.903 10.7989L143.469 10.5508ZM144.582 9.59375L144.81 10.0389L144.819 10.034L144.582 9.59375ZM149.094 9.75L149.578 9.87575L149.69 9.44438L149.274 9.28365L149.094 9.75ZM148.449 12.2305L147.965 12.1047L147.963 12.1125L148.449 12.2305ZM147.219 16.6836L146.944 17.1012L147.503 17.4691L147.697 16.829L147.219 16.6836ZM144.055 14.9062L144.192 14.4255L143.864 14.3317L143.657 14.6032L144.055 14.9062ZM142.199 18.0117L141.717 17.8779L141.695 17.96L141.7 18.045L142.199 18.0117ZM142.453 20.7266L141.958 20.7973L142.001 21.0964L142.286 21.1977L142.453 20.7266ZM145.559 21.3516L146.03 21.5192L146.267 20.8516H145.559V21.3516ZM143.547 26.3906V26.8906H143.874L144.005 26.5903L143.547 26.3906ZM138.566 25.9023L138.801 25.4609L138.794 25.457L138.786 25.4533L138.566 25.9023ZM136.574 24.3008L136.943 23.9635L136.943 23.9632L136.574 24.3008ZM136.098 15.309L136.234 9.68402L135.235 9.65973L135.098 15.2847L136.098 15.309ZM135.688 10.1698L141.606 10.7166L141.698 9.72087L135.78 9.174L135.688 10.1698ZM141.154 10.2554L141.486 14.7672L142.483 14.6938L142.151 10.1821L141.154 10.2554ZM142.456 14.8969C142.771 14.0041 143.054 13.1367 143.304 12.2946L142.345 12.01C142.1 12.8347 141.823 13.686 141.513 14.5641L142.456 14.8969ZM143.305 12.2885C143.495 11.6194 143.694 11.1357 143.894 10.8145L143.044 10.2871C142.775 10.7211 142.544 11.3051 142.343 12.0162L143.305 12.2885ZM143.903 10.7989C144.047 10.5474 144.327 10.286 144.81 10.0388L144.354 9.14873C143.769 9.44833 143.308 9.825 143.035 10.3027L143.903 10.7989ZM144.819 10.034C145.238 9.80816 145.765 9.68359 146.418 9.68359V8.68359C145.639 8.68359 144.941 8.83247 144.345 9.15351L144.819 10.034ZM146.418 9.68359C147.148 9.68359 147.978 9.85471 148.913 10.2164L149.274 9.28365C148.256 8.89008 147.302 8.68359 146.418 8.68359V9.68359ZM148.61 9.62425L147.965 12.1047L148.933 12.3562L149.578 9.87575L148.61 9.62425ZM147.963 12.1125C147.64 13.4426 147.233 14.9177 146.74 16.5382L147.697 16.829C148.194 15.1943 148.607 13.7006 148.935 12.3484L147.963 12.1125ZM147.494 16.266C146.707 15.7483 146.042 15.336 145.501 15.0318C144.969 14.7329 144.525 14.5207 144.192 14.4255L143.917 15.387C144.131 15.448 144.488 15.6102 145.011 15.9037C145.524 16.192 146.168 16.5903 146.944 17.1012L147.494 16.266ZM143.657 14.6032C142.615 15.9707 141.941 17.0731 141.717 17.8779L142.681 18.1455C142.848 17.5441 143.411 16.5762 144.452 15.2093L143.657 14.6032ZM141.7 18.045C141.779 19.221 141.864 20.1406 141.958 20.7973L142.948 20.6559C142.86 20.0365 142.776 19.1462 142.698 17.9785L141.7 18.045ZM142.286 21.1977C143.492 21.6267 144.586 21.8516 145.559 21.8516V20.8516C144.735 20.8516 143.758 20.6598 142.621 20.2555L142.286 21.1977ZM145.088 21.1839C144.545 22.7075 143.879 24.3763 143.088 26.1909L144.005 26.5903C144.803 24.7591 145.478 23.0685 146.03 21.5192L145.088 21.1839ZM143.547 25.8906C142.2 25.8906 141.126 25.8501 140.319 25.7709C139.488 25.6894 139.011 25.5723 138.801 25.4609L138.332 26.3438C138.734 26.5579 139.393 26.6849 140.222 26.7662C141.075 26.8498 142.185 26.8906 143.547 26.8906V25.8906ZM138.786 25.4533C138.224 25.1777 137.608 24.6911 136.943 23.9635L136.205 24.6381C136.92 25.4209 137.633 26.002 138.346 26.3514L138.786 25.4533ZM136.943 23.9632C136.378 23.3455 136.02 22.0613 136.02 19.9258H135.02C135.02 22.0871 135.365 23.7196 136.205 24.6384L136.943 23.9632ZM136.02 19.9258C136.02 18.5256 136.045 16.9879 136.097 15.3124L135.098 15.2814C135.046 16.9653 135.02 18.5135 135.02 19.9258H136.02ZM155.949 13.4023L155.97 12.9028L155.502 12.8833L155.452 13.3494L155.949 13.4023ZM155.441 18.168L154.944 18.115L154.885 18.668H155.441V18.168ZM159.094 18.0508L159.124 18.5499L159.58 18.5225L159.594 18.0659L159.094 18.0508ZM158.254 14.3203L157.908 14.6816L157.908 14.6818L158.254 14.3203ZM150.051 13.207L149.727 12.8259L149.565 12.9636L149.552 13.1762L150.051 13.207ZM154.445 9.47656L154.482 8.97794L154.278 8.96274L154.122 9.09538L154.445 9.47656ZM159.699 9.86719L159.741 9.36894L159.736 9.36856L159.699 9.86719ZM164.23 14.9844L164.72 15.0842L164.722 15.0771L164.723 15.07L164.23 14.9844ZM163.781 18.1289L164.011 18.5728L164.248 18.45L164.278 18.1846L163.781 18.1289ZM159.719 19.75L159.801 20.2432L159.802 20.243L159.719 19.75ZM155.812 19.8867L155.879 19.3912L154.638 19.2235L155.423 20.1998L155.812 19.8867ZM163.41 20.6484V20.1484H163.212L163.067 20.2847L163.41 20.6484ZM163.566 20.6484L164.043 20.801L164.252 20.1484H163.566V20.6484ZM150.5 23.7734L150.957 23.5697L150.952 23.5599L150.5 23.7734ZM149.836 18.4414L149.336 18.4268L149.336 18.4341V18.4414H149.836ZM149.934 15.1016L149.435 15.0707L149.434 15.0788L149.434 15.0869L149.934 15.1016ZM155.452 13.3494L154.944 18.115L155.939 18.2209L156.446 13.4553L155.452 13.3494ZM155.441 18.668C156.586 18.668 157.813 18.6285 159.124 18.5499L159.064 17.5517C157.77 17.6293 156.563 17.668 155.441 17.668V18.668ZM159.594 18.0659C159.607 17.6363 159.616 17.3192 159.623 17.1145C159.626 17.012 159.628 16.9383 159.63 16.8928C159.631 16.8695 159.631 16.8555 159.632 16.8489C159.632 16.8391 159.632 16.8512 159.63 16.8657C159.63 16.8687 159.629 16.8772 159.628 16.8879C159.627 16.8932 159.625 16.9036 159.623 16.9166C159.622 16.9224 159.615 16.9593 159.597 17.0035C159.585 17.0315 159.54 17.1076 159.504 17.1527C159.413 17.2321 159.124 17.3177 158.943 17.2805C158.836 17.2199 158.711 17.0867 158.682 17.0351C158.67 17.0068 158.653 16.9599 158.648 16.942C158.64 16.9106 158.637 16.8854 158.636 16.8786C158.635 16.868 158.634 16.8595 158.634 16.8549C158.633 16.8395 158.633 16.8272 158.633 16.8269C158.633 16.8236 158.633 16.8211 158.633 16.8203H159.633C159.633 16.8183 159.633 16.8148 159.633 16.8107C159.633 16.8096 159.633 16.7968 159.631 16.781C159.631 16.7763 159.63 16.7677 159.629 16.7571C159.628 16.7502 159.625 16.725 159.617 16.6936C159.612 16.6757 159.596 16.6288 159.583 16.6004C159.554 16.5488 159.43 16.4157 159.322 16.355C159.142 16.3178 158.853 16.4035 158.761 16.4829C158.725 16.528 158.681 16.6041 158.668 16.6321C158.651 16.6762 158.644 16.7132 158.643 16.719C158.64 16.7321 158.638 16.7426 158.638 16.7479C158.636 16.7589 158.635 16.7675 158.635 16.7708C158.634 16.7829 158.633 16.7935 158.633 16.7942C158.633 16.7979 158.633 16.8015 158.633 16.8045C158.632 16.8163 158.631 16.8346 158.631 16.8577C158.629 16.905 158.627 16.9802 158.623 17.0828C158.617 17.2882 158.607 17.6059 158.594 18.0356L159.594 18.0659ZM159.633 16.8203C159.633 15.6285 159.316 14.6435 158.599 13.9588L157.908 14.6818C158.364 15.1169 158.633 15.7986 158.633 16.8203H159.633ZM158.6 13.959C157.901 13.2909 157.012 12.9462 155.97 12.9028L155.928 13.9019C156.762 13.9366 157.409 14.2039 157.908 14.6816L158.6 13.959ZM150.374 13.5882L154.769 9.85774L154.122 9.09538L149.727 12.8259L150.374 13.5882ZM154.408 9.97519L159.662 10.3658L159.736 9.36856L154.482 8.97794L154.408 9.97519ZM159.657 10.3654C161.308 10.5051 162.361 10.9122 162.939 11.4903L163.647 10.7832C162.818 9.95503 161.476 9.51571 159.741 9.36897L159.657 10.3654ZM162.939 11.4903C163.595 12.1457 163.887 12.8187 163.887 13.5195H164.887C164.887 12.5016 164.449 11.586 163.647 10.7832L162.939 11.4903ZM163.887 13.5195C163.887 13.8565 163.84 14.3132 163.738 14.8987L164.723 15.07C164.83 14.4576 164.887 13.9378 164.887 13.5195H163.887ZM163.741 14.8846C163.593 15.6102 163.441 16.6763 163.284 18.0732L164.278 18.1846C164.434 16.7951 164.582 15.7648 164.72 15.0842L163.741 14.8846ZM163.551 17.685C161.773 18.6064 160.478 19.1146 159.635 19.257L159.802 20.243C160.809 20.0729 162.222 19.5003 164.011 18.5728L163.551 17.685ZM159.637 19.2568C158.723 19.409 157.853 19.4844 157.023 19.4844V20.4844C157.913 20.4844 158.839 20.4035 159.801 20.2432L159.637 19.2568ZM157.023 19.4844C156.728 19.4844 156.349 19.4546 155.879 19.3912L155.746 20.3822C156.24 20.449 156.668 20.4844 157.023 20.4844V19.4844ZM155.423 20.1998C156.73 21.8279 158.102 22.7695 159.543 22.7695V21.7695C158.562 21.7695 157.447 21.1226 156.202 19.5736L155.423 20.1998ZM159.543 22.7695C161.116 22.7695 162.525 22.1709 163.753 21.0122L163.067 20.2847C162.004 21.2874 160.835 21.7695 159.543 21.7695V22.7695ZM163.41 21.1484H163.566V20.1484H163.41V21.1484ZM163.09 20.4958C162.458 22.4683 161.572 23.8993 160.461 24.8365C159.357 25.7672 157.994 26.2422 156.34 26.2422V27.2422C158.201 27.2422 159.8 26.7016 161.106 25.601C162.403 24.5069 163.373 22.8911 164.043 20.801L163.09 20.4958ZM156.34 26.2422C154.54 26.2422 153.336 25.9873 152.638 25.5553L152.112 26.4056C153.055 26.9893 154.494 27.2422 156.34 27.2422V26.2422ZM152.638 25.5553C151.911 25.1052 151.35 24.4507 150.957 23.5698L150.043 23.9771C150.51 25.0232 151.198 25.8401 152.112 26.4056L152.638 25.5553ZM150.952 23.5599C150.764 23.1617 150.606 22.544 150.498 21.6755C150.391 20.8143 150.336 19.7378 150.336 18.4414H149.336C149.336 19.7622 149.392 20.8829 149.506 21.7991C149.619 22.708 149.793 23.4477 150.048 23.9869L150.952 23.5599ZM150.336 18.456L150.433 15.1162L149.434 15.0869L149.336 18.4268L150.336 18.456ZM150.433 15.1324L150.55 13.2379L149.552 13.1762L149.435 15.0707L150.433 15.1324ZM184.602 9.28125L184.614 8.7814L184.448 8.77729L184.312 8.87354L184.602 9.28125ZM190.246 9.78906L190.366 9.30368L190.363 9.30302L190.246 9.78906ZM193.254 11.6836L193.644 11.3706L193.64 11.3656L193.254 11.6836ZM194.445 15.4336L194.528 15.9268L194.945 15.8572V15.4336H194.445ZM188.684 16.9766L188.194 17.078L188.313 17.6529L188.862 17.4438L188.684 16.9766ZM186.34 14.3203L186.465 13.8361L185.9 13.6906L185.842 14.2708L186.34 14.3203ZM186.555 20.7852L186.925 20.4494L186.555 20.7852ZM188.352 21.8398L188.525 21.3707L188.516 21.3678L188.352 21.8398ZM193.762 20.3945L194.115 20.041L193.712 19.6373L193.365 20.0907L193.762 20.3945ZM193.84 20.4727L194.311 20.6403L194.417 20.3426L194.193 20.1191L193.84 20.4727ZM191.027 25.1211L190.699 24.7443L190.697 24.7462L191.027 25.1211ZM182.102 25.5898L181.823 26.005L181.825 26.0067L182.102 25.5898ZM180.109 23.1484L180.581 22.9827L180.579 22.9771L180.109 23.1484ZM179.777 13.207L179.437 12.8411L179.289 12.9787L179.278 13.1803L179.777 13.207ZM184.589 9.7811C187.217 9.84614 189.052 10.0152 190.129 10.2751L190.363 9.30302C189.175 9.01607 187.247 8.84657 184.614 8.7814L184.589 9.7811ZM190.126 10.2744C191.233 10.5481 192.142 11.1209 192.868 12.0016L193.64 11.3656C192.777 10.3192 191.681 9.62898 190.366 9.30369L190.126 10.2744ZM192.864 11.9966C193.574 12.8813 193.945 14.0145 193.945 15.4336H194.945C194.945 13.8319 194.522 12.4651 193.644 11.3706L192.864 11.9966ZM194.363 14.9404C192.301 15.2841 190.348 15.8067 188.505 16.5094L188.862 17.4438C190.639 16.7662 192.527 16.2602 194.528 15.9268L194.363 14.9404ZM189.173 16.8751C189.01 16.0883 188.709 15.42 188.248 14.8977C187.784 14.3722 187.182 14.0211 186.465 13.8361L186.215 14.8045C186.76 14.945 187.181 15.1994 187.498 15.5593C187.819 15.9225 188.058 16.4195 188.194 17.078L189.173 16.8751ZM185.842 14.2708C185.608 16.6256 185.488 18.27 185.488 19.1836H186.488C186.488 18.3263 186.603 16.7286 186.837 14.3698L185.842 14.2708ZM185.488 19.1836C185.488 19.9379 185.71 20.5979 186.184 21.1209L186.925 20.4494C186.644 20.1391 186.488 19.7314 186.488 19.1836H185.488ZM186.184 21.1209C186.64 21.6243 187.327 22.0116 188.187 22.3119L188.516 21.3678C187.736 21.0952 187.224 20.7794 186.925 20.4494L186.184 21.1209ZM188.178 22.3089C189.064 22.6359 189.892 22.8086 190.656 22.8086V21.8086C190.04 21.8086 189.332 21.6688 188.525 21.3708L188.178 22.3089ZM190.656 22.8086C191.969 22.8086 193.134 22.0377 194.159 20.6984L193.365 20.0907C192.436 21.3035 191.531 21.8086 190.656 21.8086V22.8086ZM193.408 20.7481L193.486 20.8262L194.193 20.1191L194.115 20.041L193.408 20.7481ZM193.369 20.305C192.629 22.385 191.729 23.8459 190.699 24.7443L191.356 25.4979C192.565 24.4432 193.541 22.8051 194.311 20.6403L193.369 20.305ZM190.697 24.7462C189.717 25.6105 188.203 26.0859 186.066 26.0859V27.0859C188.331 27.0859 190.124 26.5848 191.358 25.496L190.697 24.7462ZM186.066 26.0859C184.489 26.0859 183.274 25.7664 182.378 25.173L181.825 26.0067C182.935 26.7414 184.362 27.0859 186.066 27.0859V26.0859ZM182.38 25.1747C181.465 24.5603 180.878 23.8281 180.581 22.9827L179.638 23.3142C180.018 24.3958 180.759 25.2912 181.823 26.005L182.38 25.1747ZM180.579 22.9771C180.255 22.09 180.082 20.8789 180.082 19.3203H179.082C179.082 20.9388 179.26 22.2798 179.64 23.3198L180.579 22.9771ZM180.082 19.3203C180.082 17.6917 180.147 15.6636 180.277 13.2337L179.278 13.1803C179.148 15.6203 179.082 17.6676 179.082 19.3203H180.082ZM180.118 13.573C181.612 12.182 183.203 10.8873 184.891 9.68896L184.312 8.87354C182.589 10.0971 180.963 11.4196 179.437 12.8411L180.118 13.573ZM202.863 13.4023L202.884 12.9028L202.416 12.8833L202.366 13.3494L202.863 13.4023ZM202.355 18.168L201.858 18.115L201.799 18.668H202.355V18.168ZM206.008 18.0508L206.038 18.5499L206.494 18.5225L206.508 18.0659L206.008 18.0508ZM205.168 14.3203L204.822 14.6816L204.823 14.6818L205.168 14.3203ZM196.965 13.207L196.641 12.8259L196.479 12.9636L196.466 13.1762L196.965 13.207ZM201.359 9.47656L201.396 8.97794L201.192 8.96274L201.036 9.09538L201.359 9.47656ZM206.613 9.86719L206.655 9.36894L206.65 9.36856L206.613 9.86719ZM211.145 14.9844L211.634 15.0842L211.636 15.0771L211.637 15.07L211.145 14.9844ZM210.695 18.1289L210.925 18.5728L211.162 18.45L211.192 18.1846L210.695 18.1289ZM206.633 19.75L206.715 20.2432L206.716 20.243L206.633 19.75ZM202.727 19.8867L202.794 19.3912L201.552 19.2235L202.337 20.1998L202.727 19.8867ZM210.324 20.6484V20.1484H210.126L209.981 20.2847L210.324 20.6484ZM210.48 20.6484L210.957 20.801L211.166 20.1484H210.48V20.6484ZM197.414 23.7734L197.871 23.5697L197.866 23.5599L197.414 23.7734ZM196.75 18.4414L196.25 18.4268L196.25 18.4341V18.4414H196.75ZM196.848 15.1016L196.349 15.0707L196.348 15.0788L196.348 15.0869L196.848 15.1016ZM202.366 13.3494L201.858 18.115L202.853 18.2209L203.36 13.4553L202.366 13.3494ZM202.355 18.668C203.5 18.668 204.727 18.6285 206.038 18.5499L205.978 17.5517C204.684 17.6293 203.477 17.668 202.355 17.668V18.668ZM206.508 18.0659C206.521 17.6363 206.53 17.3192 206.537 17.1145C206.54 17.012 206.543 16.9383 206.544 16.8928C206.545 16.8695 206.545 16.8555 206.546 16.8489C206.546 16.8391 206.546 16.8512 206.544 16.8657C206.544 16.8687 206.543 16.8772 206.542 16.8879C206.541 16.8932 206.54 16.9036 206.537 16.9166C206.536 16.9224 206.529 16.9593 206.511 17.0035C206.499 17.0315 206.454 17.1076 206.418 17.1527C206.327 17.2321 206.038 17.3177 205.857 17.2805C205.75 17.2199 205.625 17.0867 205.597 17.0351C205.584 17.0068 205.567 16.9599 205.562 16.942C205.554 16.9106 205.551 16.8854 205.551 16.8786C205.549 16.868 205.549 16.8595 205.548 16.8549C205.547 16.8395 205.547 16.8272 205.547 16.8269C205.547 16.8236 205.547 16.8211 205.547 16.8203H206.547C206.547 16.8183 206.547 16.8148 206.547 16.8107C206.547 16.8096 206.547 16.7968 206.545 16.781C206.545 16.7763 206.544 16.7677 206.543 16.7571C206.542 16.7502 206.539 16.725 206.531 16.6936C206.526 16.6757 206.51 16.6288 206.497 16.6004C206.468 16.5488 206.344 16.4157 206.236 16.355C206.056 16.3178 205.767 16.4035 205.676 16.4829C205.639 16.528 205.595 16.6041 205.583 16.6321C205.565 16.6762 205.558 16.7132 205.557 16.719C205.554 16.7321 205.552 16.7426 205.552 16.7479C205.55 16.7589 205.549 16.7675 205.549 16.7708C205.548 16.7829 205.547 16.7935 205.547 16.7942C205.547 16.7979 205.547 16.8015 205.547 16.8045C205.546 16.8163 205.546 16.8346 205.545 16.8577C205.543 16.905 205.541 16.9802 205.537 17.0828C205.531 17.2882 205.521 17.6059 205.508 18.0356L206.508 18.0659ZM206.547 16.8203C206.547 15.6285 206.23 14.6435 205.513 13.9588L204.823 14.6818C205.278 15.1169 205.547 15.7986 205.547 16.8203H206.547ZM205.514 13.959C204.815 13.2909 203.926 12.9462 202.884 12.9028L202.842 13.9019C203.676 13.9366 204.323 14.2039 204.822 14.6816L205.514 13.959ZM197.288 13.5882L201.683 9.85774L201.036 9.09538L196.641 12.8259L197.288 13.5882ZM201.322 9.97519L206.576 10.3658L206.65 9.36856L201.396 8.97794L201.322 9.97519ZM206.571 10.3654C208.222 10.5051 209.275 10.9122 209.853 11.4903L210.561 10.7832C209.732 9.95503 208.39 9.51571 206.655 9.36897L206.571 10.3654ZM209.853 11.4903C210.509 12.1457 210.801 12.8187 210.801 13.5195H211.801C211.801 12.5016 211.363 11.586 210.561 10.7832L209.853 11.4903ZM210.801 13.5195C210.801 13.8565 210.754 14.3132 210.652 14.8987L211.637 15.07C211.744 14.4576 211.801 13.9378 211.801 13.5195H210.801ZM210.655 14.8846C210.507 15.6102 210.355 16.6763 210.198 18.0732L211.192 18.1846C211.348 16.7951 211.496 15.7648 211.634 15.0842L210.655 14.8846ZM210.465 17.685C208.687 18.6064 207.392 19.1146 206.549 19.257L206.716 20.243C207.723 20.0729 209.136 19.5003 210.925 18.5728L210.465 17.685ZM206.551 19.2568C205.637 19.409 204.767 19.4844 203.938 19.4844V20.4844C204.827 20.4844 205.753 20.4035 206.715 20.2432L206.551 19.2568ZM203.938 19.4844C203.642 19.4844 203.263 19.4546 202.794 19.3912L202.66 20.3822C203.154 20.449 203.582 20.4844 203.938 20.4844V19.4844ZM202.337 20.1998C203.645 21.8279 205.016 22.7695 206.457 22.7695V21.7695C205.476 21.7695 204.361 21.1226 203.116 19.5736L202.337 20.1998ZM206.457 22.7695C208.03 22.7695 209.439 22.1709 210.667 21.0122L209.981 20.2847C208.918 21.2874 207.749 21.7695 206.457 21.7695V22.7695ZM210.324 21.1484H210.48V20.1484H210.324V21.1484ZM210.004 20.4958C209.372 22.4683 208.486 23.8993 207.375 24.8365C206.271 25.7672 204.908 26.2422 203.254 26.2422V27.2422C205.115 27.2422 206.714 26.7016 208.02 25.601C209.317 24.5069 210.287 22.8911 210.957 20.801L210.004 20.4958ZM203.254 26.2422C201.454 26.2422 200.25 25.9873 199.552 25.5553L199.026 26.4056C199.969 26.9893 201.408 27.2422 203.254 27.2422V26.2422ZM199.552 25.5553C198.825 25.1052 198.264 24.4507 197.871 23.5698L196.957 23.9771C197.424 25.0232 198.112 25.8401 199.026 26.4056L199.552 25.5553ZM197.866 23.5599C197.678 23.1617 197.52 22.544 197.412 21.6755C197.305 20.8143 197.25 19.7378 197.25 18.4414H196.25C196.25 19.7622 196.306 20.8829 196.42 21.7991C196.533 22.708 196.707 23.4477 196.962 23.9869L197.866 23.5599ZM197.25 18.456L197.347 15.1162L196.348 15.0869L196.25 18.4268L197.25 18.456ZM197.347 15.1324L197.464 13.2379L196.466 13.1762L196.349 15.0707L197.347 15.1324ZM218.137 10.0625L217.992 9.58386L217.984 9.58625L217.976 9.58889L218.137 10.0625ZM220.012 9.49609H220.512V8.82274L219.867 9.01746L220.012 9.49609ZM220.012 12.0547H219.512V12.9432L220.271 12.4821L220.012 12.0547ZM221.965 10.9219L221.727 10.4821L221.717 10.4874L221.965 10.9219ZM222.883 10.375L222.626 9.94625L222.618 9.95108L222.61 9.95619L222.883 10.375ZM224.543 9.37891L224.612 8.88372L224.437 8.85926L224.286 8.95016L224.543 9.37891ZM227.316 10.0039L227.504 9.5403L227.497 9.53773L227.316 10.0039ZM228.84 11.1172L229.228 10.8023L229.227 10.8011L228.84 11.1172ZM229.641 12.582L229.16 12.7211L229.161 12.7231L229.641 12.582ZM229.484 19.125L228.989 19.0554L228.989 19.0558L229.484 19.125ZM229.074 23.6953L229.343 24.1169L229.569 23.973L229.574 23.7055L229.074 23.6953ZM225.461 26L225.192 25.5785L225.186 25.5823L225.18 25.5863L225.461 26ZM224.914 26.3711L224.633 25.9573L224.631 25.9591L224.914 26.3711ZM222.355 27.8359L221.866 27.7335L221.676 28.6393L222.538 28.3014L222.355 27.8359ZM221.867 12.875L222.3 12.624L221.92 11.9707L221.467 12.575L221.867 12.875ZM221.164 13.5781L220.816 13.2192L220.804 13.231L220.792 13.2436L221.164 13.5781ZM220.812 13.9688L221.166 14.3223L221.175 14.313L221.184 14.3032L220.812 13.9688ZM220.012 14.7695L219.658 14.416L219.51 14.5642L219.512 14.7739L220.012 14.7695ZM220.109 26L220.125 26.4998L220.614 26.4848L220.609 25.9957L220.109 26ZM213.488 26.9375H212.988V27.5744L213.607 27.4232L213.488 26.9375ZM213.508 25.5898L214.007 25.6192L214.008 25.606L213.508 25.5898ZM213.547 23.6953H214.047V23.6775L214.046 23.6597L213.547 23.6953ZM213.371 11.6641L213.224 11.1862L212.855 11.2997L212.872 11.6852L213.371 11.6641ZM213.957 11.4883L214.098 11.968L214.111 11.9642L214.123 11.9598L213.957 11.4883ZM214.699 11.2344L214.548 10.7579L214.541 10.76L214.699 11.2344ZM215.598 10.9219L215.437 10.4483L215.43 10.4509L215.422 10.4537L215.598 10.9219ZM218.281 10.5411L220.156 9.97473L219.867 9.01746L217.992 9.58386L218.281 10.5411ZM219.512 9.49609V12.0547H220.512V9.49609H219.512ZM220.271 12.4821C220.629 12.2648 221.275 11.8903 222.212 11.3564L221.717 10.4874C220.78 11.0211 220.124 11.4019 219.752 11.6273L220.271 12.4821ZM222.203 11.3615C222.527 11.1857 222.845 10.9965 223.156 10.7938L222.61 9.95619C222.322 10.1441 222.027 10.3195 221.727 10.4822L222.203 11.3615ZM223.14 10.8037L224.8 9.80765L224.286 8.95016L222.626 9.94625L223.14 10.8037ZM224.474 9.87409C225.671 10.0415 226.551 10.2434 227.136 10.4701L227.497 9.53773C226.806 9.26957 225.836 9.05486 224.612 8.88372L224.474 9.87409ZM227.129 10.4675C227.666 10.6844 228.104 11.0059 228.452 11.4333L229.227 10.8011C228.769 10.2389 228.191 9.81818 227.504 9.54035L227.129 10.4675ZM228.451 11.4321C228.808 11.8723 229.039 12.3021 229.16 12.7211L230.121 12.443C229.956 11.8724 229.653 11.3256 229.228 10.8023L228.451 11.4321ZM229.161 12.7231C229.269 13.0914 229.336 13.7643 229.336 14.7891H230.336C230.336 13.7565 230.272 12.9581 230.12 12.4409L229.161 12.7231ZM229.336 14.7891C229.336 15.9829 229.221 17.4039 228.989 19.0554L229.98 19.1946C230.216 17.5128 230.336 16.0431 230.336 14.7891H229.336ZM228.989 19.0558C228.74 20.8391 228.601 22.3833 228.574 23.6851L229.574 23.7055C229.6 22.4553 229.734 20.9526 229.98 19.1942L228.989 19.0558ZM228.805 23.2738L225.192 25.5785L225.73 26.4215L229.343 24.1169L228.805 23.2738ZM225.18 25.5863L224.633 25.9574L225.195 26.7848L225.742 26.4137L225.18 25.5863ZM224.631 25.9591C223.6 26.6675 222.784 27.1307 222.173 27.3705L222.538 28.3014C223.255 28.0203 224.144 27.507 225.197 26.7831L224.631 25.9591ZM222.845 27.9384C223.602 24.3202 223.988 21.4551 223.988 19.3594H222.988C222.988 21.3522 222.619 24.1382 221.866 27.7335L222.845 27.9384ZM223.988 19.3594C223.988 16.8231 223.431 14.5726 222.3 12.624L221.435 13.126C222.465 14.9014 222.988 16.9738 222.988 19.3594H223.988ZM221.467 12.575C221.475 12.5652 221.439 12.6057 221.309 12.7363C221.194 12.8508 221.03 13.0115 220.816 13.2192L221.512 13.9371C221.728 13.7281 221.896 13.5633 222.016 13.4434C222.119 13.3396 222.221 13.2369 222.267 13.175L221.467 12.575ZM220.792 13.2436L220.441 13.6343L221.184 14.3032L221.536 13.9126L220.792 13.2436ZM220.459 13.6152L219.658 14.416L220.365 15.1231L221.166 14.3223L220.459 13.6152ZM219.512 14.7739L219.609 26.0043L220.609 25.9957L220.512 14.7652L219.512 14.7739ZM220.094 25.5002C217.933 25.5665 215.691 25.8845 213.37 26.4518L213.607 27.4232C215.868 26.8707 218.041 26.5637 220.125 26.4998L220.094 25.5002ZM213.988 26.9375C213.988 26.2578 213.995 25.8234 214.007 25.6192L213.009 25.5605C212.995 25.799 212.988 26.2631 212.988 26.9375H213.988ZM214.008 25.606C214.033 24.803 214.047 24.311 214.047 24.1445H213.047C213.047 24.2906 213.034 24.7621 213.008 25.5737L214.008 25.606ZM214.047 24.1445V23.6953H213.047V24.1445H214.047ZM214.046 23.6597C214.007 23.1124 213.988 22.7445 213.988 22.543H212.988C212.988 22.7842 213.009 23.1844 213.048 23.7309L214.046 23.6597ZM213.988 22.543V17.9336H212.988V22.543H213.988ZM213.988 17.9336C213.988 15.5975 213.949 13.5005 213.871 11.643L212.872 11.6852C212.949 13.5256 212.988 15.6082 212.988 17.9336H213.988ZM213.518 12.142C213.685 12.0906 213.878 12.0326 214.098 11.968L213.816 11.0086C213.593 11.0741 213.396 11.1333 213.224 11.1862L213.518 12.142ZM214.123 11.9598C214.342 11.8828 214.586 11.7991 214.857 11.7087L214.541 10.76C214.265 10.8519 214.015 10.9375 213.791 11.0168L214.123 11.9598ZM214.851 11.7108C215.146 11.6169 215.454 11.5099 215.773 11.39L215.422 10.4537C215.117 10.5682 214.825 10.6696 214.548 10.7579L214.851 11.7108ZM215.758 11.3955L218.297 10.5361L217.976 9.58889L215.437 10.4483L215.758 11.3955ZM234.113 9.28125L234.613 9.28919L234.613 9.27508L234.113 9.28125ZM234.094 7.69922L234.012 7.20602L233.588 7.27653L233.594 7.70539L234.094 7.69922ZM235.949 7.50391L235.997 8.00162L236.002 8.0011L235.949 7.50391ZM240.051 7.01562L240.55 6.98444L240.516 6.44298L239.979 6.52079L240.051 7.01562ZM239.934 9.75L239.436 9.70291L239.389 10.2011L239.887 10.2478L239.934 9.75ZM244.113 9.75L244.606 9.8322L244.718 9.16291L244.046 9.25458L244.113 9.75ZM243.43 13.4805L243.503 13.975L243.825 13.927L243.912 13.6134L243.43 13.4805ZM239.816 13.7734L239.795 13.2739L239.339 13.2932L239.317 13.7498L239.816 13.7734ZM240.48 20.4336L240.874 20.125L240.873 20.124L240.48 20.4336ZM243.195 21.9961L243.613 22.2716L243.986 21.7066L243.336 21.5163L243.195 21.9961ZM239.816 27.1133L239.684 27.5954L240.034 27.6917L240.234 27.3888L239.816 27.1133ZM233.703 17.4258L234.2 17.4852L234.2 17.4832L233.703 17.4258ZM234.016 14.2422L234.515 14.266L234.541 13.7307L234.005 13.7423L234.016 14.2422ZM232.023 14.457L231.591 14.2054L231.048 15.1392L232.111 14.9492L232.023 14.457ZM234.094 10.9023L234.526 11.154L234.594 11.0373V10.9023H234.094ZM234.094 10.5117L233.594 10.5038V10.5117H234.094ZM234.613 9.27508L234.594 7.69305L233.594 7.70539L233.613 9.28742L234.613 9.27508ZM234.176 8.19242C234.31 8.17004 234.904 8.10692 235.997 8.0016L235.901 7.00621C234.833 7.10922 234.19 7.17632 234.012 7.20602L234.176 8.19242ZM236.002 8.0011C237.839 7.80565 239.214 7.64208 240.122 7.51046L239.979 6.52079C239.09 6.64958 237.731 6.81153 235.896 7.00671L236.002 8.0011ZM239.552 7.04681C239.564 7.2436 239.57 7.45448 239.57 7.67969H240.57C240.57 7.43615 240.564 7.20432 240.55 6.98444L239.552 7.04681ZM239.57 7.67969C239.57 8.07059 239.527 8.74006 239.436 9.70291L240.431 9.79709C240.523 8.83286 240.57 8.12212 240.57 7.67969H239.57ZM239.887 10.2478C240.331 10.2894 241.181 10.3086 242.414 10.3086V9.30859C241.173 9.30859 240.37 9.28871 239.98 9.25218L239.887 10.2478ZM242.414 10.3086C243.255 10.3086 243.855 10.2898 244.181 10.2454L244.046 9.25458C243.798 9.28833 243.266 9.30859 242.414 9.30859V10.3086ZM243.62 9.6678C243.266 11.7919 243.043 13.0018 242.948 13.3475L243.912 13.6134C244.025 13.204 244.257 11.9269 244.606 9.8322L243.62 9.6678ZM243.356 12.9859C242.509 13.1123 241.325 13.2091 239.795 13.2739L239.838 14.273C241.381 14.2076 242.605 14.109 243.503 13.975L243.356 12.9859ZM239.317 13.7498C239.226 15.6757 239.18 17.0021 239.18 17.7188H240.18C240.18 17.0291 240.225 15.7253 240.316 13.7971L239.317 13.7498ZM239.18 17.7188C239.18 18.9285 239.465 19.9536 240.088 20.7432L240.873 20.124C240.428 19.5594 240.18 18.7746 240.18 17.7188H239.18ZM240.087 20.7422C240.7 21.5239 241.72 22.085 243.055 22.4759L243.336 21.5163C242.092 21.152 241.302 20.6714 240.874 20.125L240.087 20.7422ZM242.778 21.7206L239.399 26.8378L240.234 27.3888L243.613 22.2716L242.778 21.7206ZM239.949 26.6312C237.87 26.0591 236.366 25.25 235.386 24.2363C234.417 23.2348 233.93 22.0044 233.93 20.5117H232.93C232.93 22.2482 233.507 23.7326 234.667 24.9316C235.815 26.1185 237.505 26.9956 239.684 27.5954L239.949 26.6312ZM233.93 20.5117C233.93 20.0123 234.017 19.0126 234.2 17.4852L233.207 17.3664C233.025 18.8858 232.93 19.9434 232.93 20.5117H233.93ZM234.2 17.4832C234.382 15.9101 234.488 14.8324 234.515 14.266L233.516 14.2184C233.491 14.7457 233.389 15.7904 233.206 17.3683L234.2 17.4832ZM234.005 13.7423C233.375 13.756 232.684 13.8311 231.936 13.9648L232.111 14.9492C232.821 14.8226 233.459 14.7544 234.026 14.7421L234.005 13.7423ZM232.455 14.7087L234.526 11.154L233.662 10.6507L231.591 14.2054L232.455 14.7087ZM234.594 10.9023V10.5117H233.594V10.9023H234.594ZM234.594 10.5197L234.613 9.28919L233.613 9.27331L233.594 10.5038L234.594 10.5197ZM252.082 13.4023L252.103 12.9028L251.635 12.8833L251.585 13.3494L252.082 13.4023ZM251.574 18.168L251.077 18.115L251.018 18.668H251.574V18.168ZM255.227 18.0508L255.257 18.5499L255.712 18.5225L255.726 18.0659L255.227 18.0508ZM254.387 14.3203L254.041 14.6816L254.041 14.6818L254.387 14.3203ZM246.184 13.207L245.86 12.8259L245.698 12.9636L245.685 13.1762L246.184 13.207ZM250.578 9.47656L250.615 8.97794L250.411 8.96274L250.255 9.09538L250.578 9.47656ZM255.832 9.86719L255.874 9.36894L255.869 9.36856L255.832 9.86719ZM260.363 14.9844L260.853 15.0842L260.855 15.0771L260.856 15.07L260.363 14.9844ZM259.914 18.1289L260.144 18.5728L260.381 18.45L260.411 18.1846L259.914 18.1289ZM255.852 19.75L255.934 20.2432L255.935 20.243L255.852 19.75ZM251.945 19.8867L252.012 19.3912L250.771 19.2235L251.556 20.1998L251.945 19.8867ZM259.543 20.6484V20.1484H259.344L259.2 20.2847L259.543 20.6484ZM259.699 20.6484L260.175 20.801L260.385 20.1484H259.699V20.6484ZM246.633 23.7734L247.09 23.5697L247.085 23.5599L246.633 23.7734ZM245.969 18.4414L245.469 18.4268L245.469 18.4341V18.4414H245.969ZM246.066 15.1016L245.567 15.0707L245.567 15.0788L245.567 15.0869L246.066 15.1016ZM251.585 13.3494L251.077 18.115L252.071 18.2209L252.579 13.4553L251.585 13.3494ZM251.574 18.668C252.718 18.668 253.946 18.6285 255.257 18.5499L255.197 17.5517C253.903 17.6293 252.696 17.668 251.574 17.668V18.668ZM255.726 18.0659C255.739 17.6363 255.749 17.3192 255.756 17.1145C255.759 17.012 255.761 16.9383 255.763 16.8928C255.764 16.8695 255.764 16.8555 255.765 16.8489C255.765 16.8391 255.765 16.8512 255.763 16.8657C255.763 16.8687 255.762 16.8772 255.761 16.8879C255.76 16.8932 255.758 16.9036 255.756 16.9166C255.754 16.9224 255.747 16.9593 255.73 17.0035C255.718 17.0315 255.673 17.1076 255.637 17.1527C255.545 17.2321 255.256 17.3177 255.076 17.2805C254.968 17.2199 254.844 17.0867 254.815 17.0351C254.803 17.0068 254.786 16.9599 254.781 16.942C254.773 16.9106 254.77 16.8854 254.769 16.8786C254.768 16.868 254.767 16.8595 254.767 16.8549C254.766 16.8395 254.766 16.8272 254.766 16.8269C254.766 16.8236 254.766 16.8211 254.766 16.8203H255.766C255.766 16.8183 255.766 16.8148 255.766 16.8107C255.766 16.8096 255.765 16.7968 255.764 16.781C255.764 16.7763 255.763 16.7677 255.762 16.7571C255.761 16.7502 255.758 16.725 255.75 16.6936C255.745 16.6757 255.728 16.6288 255.716 16.6004C255.687 16.5488 255.563 16.4157 255.455 16.355C255.275 16.3178 254.986 16.4035 254.894 16.4829C254.858 16.528 254.813 16.6041 254.801 16.6321C254.784 16.6762 254.777 16.7132 254.775 16.719C254.773 16.7321 254.771 16.7426 254.77 16.7479C254.769 16.7589 254.768 16.7675 254.768 16.7708C254.767 16.7829 254.766 16.7935 254.766 16.7942C254.766 16.7979 254.766 16.8015 254.766 16.8045C254.765 16.8163 254.764 16.8346 254.763 16.8577C254.762 16.905 254.759 16.9802 254.756 17.0828C254.75 17.2882 254.74 17.6059 254.727 18.0356L255.726 18.0659ZM255.766 16.8203C255.766 15.6285 255.449 14.6435 254.732 13.9588L254.041 14.6818C254.497 15.1169 254.766 15.7986 254.766 16.8203H255.766ZM254.732 13.959C254.034 13.2909 253.145 12.9462 252.103 12.9028L252.061 13.9019C252.894 13.9366 253.542 14.2039 254.041 14.6816L254.732 13.959ZM246.507 13.5882L250.902 9.85774L250.255 9.09538L245.86 12.8259L246.507 13.5882ZM250.541 9.97519L255.795 10.3658L255.869 9.36856L250.615 8.97794L250.541 9.97519ZM255.79 10.3654C257.441 10.5051 258.494 10.9122 259.072 11.4903L259.779 10.7832C258.951 9.95503 257.608 9.51571 255.874 9.36897L255.79 10.3654ZM259.072 11.4903C259.728 12.1457 260.02 12.8187 260.02 13.5195H261.02C261.02 12.5016 260.582 11.586 259.779 10.7832L259.072 11.4903ZM260.02 13.5195C260.02 13.8565 259.973 14.3132 259.871 14.8987L260.856 15.07C260.962 14.4576 261.02 13.9378 261.02 13.5195H260.02ZM259.873 14.8846C259.726 15.6102 259.574 16.6763 259.417 18.0732L260.411 18.1846C260.567 16.7951 260.715 15.7648 260.853 15.0842L259.873 14.8846ZM259.684 17.685C257.906 18.6064 256.611 19.1146 255.768 19.257L255.935 20.243C256.941 20.0729 258.354 19.5003 260.144 18.5728L259.684 17.685ZM255.769 19.2568C254.856 19.409 253.985 19.4844 253.156 19.4844V20.4844C254.046 20.4844 254.972 20.4035 255.934 20.2432L255.769 19.2568ZM253.156 19.4844C252.861 19.4844 252.482 19.4546 252.012 19.3912L251.878 20.3822C252.373 20.449 252.8 20.4844 253.156 20.4844V19.4844ZM251.556 20.1998C252.863 21.8279 254.235 22.7695 255.676 22.7695V21.7695C254.695 21.7695 253.579 21.1226 252.335 19.5736L251.556 20.1998ZM255.676 22.7695C257.249 22.7695 258.657 22.1709 259.886 21.0122L259.2 20.2847C258.137 21.2874 256.967 21.7695 255.676 21.7695V22.7695ZM259.543 21.1484H259.699V20.1484H259.543V21.1484ZM259.223 20.4958C258.591 22.4683 257.705 23.8993 256.594 24.8365C255.49 25.7672 254.127 26.2422 252.473 26.2422V27.2422C254.334 27.2422 255.933 26.7016 257.238 25.601C258.536 24.5069 259.505 22.8911 260.175 20.801L259.223 20.4958ZM252.473 26.2422C250.673 26.2422 249.469 25.9873 248.771 25.5553L248.245 26.4056C249.188 26.9893 250.627 27.2422 252.473 27.2422V26.2422ZM248.771 25.5553C248.044 25.1052 247.482 24.4507 247.089 23.5698L246.176 23.9771C246.643 25.0232 247.331 25.8401 248.245 26.4056L248.771 25.5553ZM247.085 23.5599C246.897 23.1617 246.739 22.544 246.631 21.6755C246.524 20.8143 246.469 19.7378 246.469 18.4414H245.469C245.469 19.7622 245.524 20.8829 245.639 21.7991C245.752 22.708 245.926 23.4477 246.181 23.9869L247.085 23.5599ZM246.469 18.456L246.566 15.1162L245.567 15.0869L245.469 18.4268L246.469 18.456ZM246.565 15.1324L246.683 13.2379L245.685 13.1762L245.567 15.0707L246.565 15.1324ZM263.293 15.2969L263.793 15.3124L263.793 15.309L263.293 15.2969ZM263.43 9.67188L263.476 9.174L262.943 9.12476L262.93 9.65973L263.43 9.67188ZM269.348 10.2188L269.846 10.1821L269.815 9.75983L269.394 9.72087L269.348 10.2188ZM269.68 14.7305L269.181 14.7672L270.151 14.8969L269.68 14.7305ZM270.52 12.1523L270.999 12.2947L271.001 12.2885L270.52 12.1523ZM271.164 10.5508L271.589 10.8145L271.594 10.8067L271.598 10.7989L271.164 10.5508ZM272.277 9.59375L272.505 10.0389L272.514 10.034L272.277 9.59375ZM276.789 9.75L277.273 9.87575L277.385 9.44438L276.969 9.28365L276.789 9.75ZM276.145 12.2305L275.661 12.1047L275.659 12.1125L276.145 12.2305ZM274.914 16.6836L274.639 17.1012L275.198 17.4691L275.392 16.829L274.914 16.6836ZM271.75 14.9062L271.887 14.4255L271.559 14.3317L271.352 14.6032L271.75 14.9062ZM269.895 18.0117L269.413 17.8779L269.39 17.96L269.396 18.045L269.895 18.0117ZM270.148 20.7266L269.653 20.7973L269.696 21.0964L269.981 21.1977L270.148 20.7266ZM273.254 21.3516L273.725 21.5192L273.963 20.8516H273.254V21.3516ZM271.242 26.3906V26.8906H271.57L271.701 26.5903L271.242 26.3906ZM266.262 25.9023L266.497 25.4609L266.489 25.457L266.482 25.4533L266.262 25.9023ZM264.27 24.3008L264.639 23.9635L264.638 23.9632L264.27 24.3008ZM263.793 15.309L263.93 9.68402L262.93 9.65973L262.793 15.2847L263.793 15.309ZM263.384 10.1698L269.302 10.7166L269.394 9.72087L263.476 9.174L263.384 10.1698ZM268.849 10.2554L269.181 14.7672L270.178 14.6938L269.846 10.1821L268.849 10.2554ZM270.151 14.8969C270.466 14.0041 270.749 13.1367 270.999 12.2946L270.04 12.01C269.795 12.8347 269.518 13.686 269.208 14.5641L270.151 14.8969ZM271.001 12.2885C271.19 11.6194 271.389 11.1357 271.589 10.8145L270.739 10.2871C270.47 10.7211 270.24 11.3051 270.038 12.0162L271.001 12.2885ZM271.598 10.7989C271.742 10.5474 272.023 10.286 272.505 10.0388L272.049 9.14873C271.464 9.44833 271.003 9.825 270.73 10.3027L271.598 10.7989ZM272.514 10.034C272.934 9.80816 273.46 9.68359 274.113 9.68359V8.68359C273.334 8.68359 272.637 8.83247 272.04 9.15351L272.514 10.034ZM274.113 9.68359C274.844 9.68359 275.673 9.85471 276.609 10.2164L276.969 9.28365C275.952 8.89008 274.998 8.68359 274.113 8.68359V9.68359ZM276.305 9.62425L275.661 12.1047L276.628 12.3562L277.273 9.87575L276.305 9.62425ZM275.659 12.1125C275.336 13.4426 274.928 14.9177 274.436 16.5382L275.392 16.829C275.889 15.1943 276.302 13.7006 276.63 12.3484L275.659 12.1125ZM275.189 16.266C274.403 15.7483 273.738 15.336 273.196 15.0318C272.664 14.7329 272.221 14.5207 271.887 14.4255L271.613 15.387C271.826 15.448 272.184 15.6102 272.706 15.9037C273.219 16.192 273.863 16.5903 274.639 17.1012L275.189 16.266ZM271.352 14.6032C270.31 15.9707 269.636 17.0731 269.413 17.8779L270.376 18.1455C270.543 17.5441 271.106 16.5762 272.148 15.2093L271.352 14.6032ZM269.396 18.045C269.474 19.221 269.56 20.1406 269.653 20.7973L270.643 20.6559C270.555 20.0365 270.471 19.1462 270.393 17.9785L269.396 18.045ZM269.981 21.1977C271.187 21.6267 272.281 21.8516 273.254 21.8516V20.8516C272.43 20.8516 271.453 20.6598 270.316 20.2555L269.981 21.1977ZM272.783 21.1839C272.241 22.7075 271.574 24.3763 270.784 26.1909L271.701 26.5903C272.498 24.7591 273.174 23.0685 273.725 21.5192L272.783 21.1839ZM271.242 25.8906C269.896 25.8906 268.822 25.8501 268.015 25.7709C267.183 25.6894 266.706 25.5723 266.497 25.4609L266.027 26.3438C266.429 26.5579 267.088 26.6849 267.917 26.7662C268.77 26.8498 269.88 26.8906 271.242 26.8906V25.8906ZM266.482 25.4533C265.919 25.1777 265.304 24.6911 264.639 23.9635L263.9 24.6381C264.616 25.4209 265.329 26.002 266.042 26.3514L266.482 25.4533ZM264.638 23.9632C264.073 23.3455 263.715 22.0613 263.715 19.9258H262.715C262.715 22.0871 263.06 23.7196 263.901 24.6384L264.638 23.9632ZM263.715 19.9258C263.715 18.5256 263.741 16.9879 263.793 15.3124L262.793 15.2814C262.741 16.9653 262.715 18.5135 262.715 19.9258H263.715Z" fill="#070000"/>
</svg>
